<?xml version="1.0" encoding="UTF-8"?>
<svg width="20px" height="20px" viewBox="0 0 20 20" version="1.1" xmlns="http://www.w3.org/2000/svg" xmlns:xlink="http://www.w3.org/1999/xlink">
    <!-- Generator: Sketch 57.1 (83088) - https://sketch.com -->
    <title>ico/altitud</title>
    <desc>Created with Sketch.</desc>
    <g id="ico/altitud" stroke="none" stroke-width="1" fill="none" fill-rule="evenodd">
        <path d="M8.85715222,3.42855525 C8.85715222,3.81918072 8.53349112,4.14284182 8.14286566,4.14284182 L6.71428657,4.14284182 L6.71428657,15.5714269 L8.14286566,15.5714269 C8.53349112,15.5714269 8.85715222,15.895088 8.85715222,16.2857134 C8.85715222,16.4754458 8.77902713,16.6540174 8.6450984,16.7879462 L5.78795214,19.6450924 C5.65402341,19.7790212 5.47545176,19.8571463 5.28571939,19.8571463 C5.09598703,19.8571463 4.91741538,19.7790212 4.78348665,19.6450924 L1.92634039,16.7879462 C1.79241166,16.6540174 1.71428657,16.4754458 1.71428657,16.2857134 C1.71428657,15.895088 2.03794767,15.5714269 2.42857313,15.5714269 L3.85714626,15.5714269 L3.85714626,4.14284182 L2.42857313,4.14284182 C2.03794767,4.14284182 1.71428657,3.81918072 1.71428657,3.42855525 C1.71428657,3.23882288 1.79241166,3.06025124 1.92634039,2.92632251 L4.78348665,0.0691762455 C4.91741538,-0.0647524856 5.09598703,-0.142877579 5.28571939,-0.142877579 C5.47545176,-0.142877579 5.65402341,-0.0647524856 5.78795214,0.0691762455 L8.6450984,2.92632251 C8.77902713,3.06025124 8.85715222,3.23882288 8.85715222,3.42855525 Z" id="ï½" fill="#5C966A" fill-rule="nonzero"></path>
    </g>
</svg>