<?xml version="1.0" encoding="UTF-8"?>
<svg width="20px" height="20px" viewBox="0 0 20 20" version="1.1" xmlns="http://www.w3.org/2000/svg" xmlns:xlink="http://www.w3.org/1999/xlink">
    <!-- Generator: Sketch 57.1 (83088) - https://sketch.com -->
    <title>ico/aparcamiento</title>
    <desc>Created with Sketch.</desc>
    <g id="ico/aparcamiento" stroke="none" stroke-width="1" fill="none" fill-rule="evenodd">
        <path d="M17.8571429,0 L2.14285714,0 C0.959821429,0 0,0.959821429 0,2.14285714 L0,17.8571429 C0,19.0401786 0.959821429,20 2.14285714,20 L17.8571429,20 C19.0401786,20 20,19.0401786 20,17.8571429 L20,2.14285714 C20,0.959821429 19.0401786,0 17.8571429,0 Z M10.7142857,12.8571429 L8.57142857,12.8571429 L8.57142857,15 C8.57142857,15.3928571 8.25,15.7142857 7.85714286,15.7142857 L6.42857143,15.7142857 C6.03571429,15.7142857 5.71428571,15.3928571 5.71428571,15 L5.71428571,5 C5.71428571,4.60714286 6.03571429,4.28571429 6.42857143,4.28571429 L10.7142857,4.28571429 C13.0758929,4.28571429 15,6.20982143 15,8.57142857 C15,10.9330357 13.0758929,12.8571429 10.7142857,12.8571429 Z M10.7142857,7.14285714 L8.57142857,7.14285714 L8.57142857,10 L10.7142857,10 C11.5,10 12.1428571,9.35714286 12.1428571,8.57142857 C12.1428571,7.78571429 11.5,7.14285714 10.7142857,7.14285714 Z" id="Shape" fill="#5C966A" fill-rule="nonzero"></path>
    </g>
</svg>