<?xml version="1.0" encoding="UTF-8"?>
<svg width="20px" height="20px" viewBox="0 0 20 20" version="1.1" xmlns="http://www.w3.org/2000/svg" xmlns:xlink="http://www.w3.org/1999/xlink">
    <!-- Generator: Sketch 57.1 (83088) - https://sketch.com -->
    <title>ico/aseos</title>
    <desc>Created with Sketch.</desc>
    <g id="ico/aseos" stroke="none" stroke-width="1" fill="none" fill-rule="evenodd">
        <path d="M7.31429443,7.62857361 L7.31429443,11.5285736 C7.31429443,12.0254486 7.00715121,12.4285736 6.62857933,12.4285736 C6.25000745,12.4285736 5.94286423,12.0254486 5.94286423,11.5285736 L5.94286423,8.22857361 L5.48572083,8.22857361 L5.48572083,16.7785736 C5.48572083,17.3598236 5.12857754,17.8285736 4.68571987,17.8285736 C4.2428622,17.8285736 3.88571892,17.3598236 3.88571892,16.7785736 L3.88571892,12.4285736 L3.42857552,12.4285736 L3.42857552,16.7785736 C3.42857552,17.3598236 3.07143223,17.8285736 2.62857456,17.8285736 C2.18571689,17.8285736 1.82857361,17.3598236 1.82857361,16.7785736 L1.82857361,8.22857361 L1.37143021,8.22857361 L1.37143021,11.5285736 C1.37143021,12.0254486 1.06428698,12.4285736 0.685715103,12.4285736 C0.307143223,12.4285736 0,12.0254486 0,11.5285736 L0,7.62857361 C0,6.63482361 0.614286447,5.82857361 1.37143021,5.82857361 L5.94286423,5.82857361 C6.70000799,5.82857361 7.31429443,6.63482361 7.31429443,7.62857361 Z M5.25714912,3.85713196 C5.25714912,4.7428473 4.54286256,5.45713387 3.65714722,5.45713387 C2.77143188,5.45713387 2.05714531,4.7428473 2.05714531,3.85713196 C2.05714531,2.97141662 2.77143188,2.25713005 3.65714722,2.25713005 C4.54286256,2.25713005 5.25714912,2.97141662 5.25714912,3.85713196 Z" id="" fill="#5C966A" fill-rule="nonzero"></path>
        <path d="M20.142868,10.2233497 C20.142868,10.6515172 19.8357248,10.9988984 19.4571529,10.9988984 C19.2285812,10.9988984 19.0142953,10.8696403 18.8857237,10.6515172 L17.2642932,7.89670352 L16.9428642,7.89670352 L16.9428642,10.6224334 L18.707152,13.9427514 C18.7500092,14.0235377 18.7714378,14.1124027 18.7714378,14.2093463 C18.7714378,14.4920984 18.5642947,14.7263787 18.3142944,14.7263787 L16.9428642,14.7263787 L16.9428642,16.9237668 C16.9428642,17.424642 16.5857209,17.8285736 16.1428633,17.8285736 L15,17.8285736 C14.56429,17.8285736 14.2000038,17.424642 14.2000038,16.9237668 L14.2000038,14.7263787 L12.8285736,14.7263787 C12.5785733,14.7263787 12.3714302,14.4920984 12.3714302,14.2093463 C12.3714302,14.1124027 12.3928588,14.0235377 12.435716,13.9427514 L14.2000038,10.6224334 L14.2000038,7.89670352 L13.8785749,7.89670352 L12.2571444,10.6515172 C12.1285728,10.8696403 11.9142868,10.9988984 11.6857151,10.9988984 C11.3071432,10.9988984 11,10.6515172 11,10.2233497 C11,10.0698557 11.0428572,9.91636164 11.1142859,9.79518215 L12.9428595,6.69298728 C13.2285741,6.21634797 13.6714318,5.82857361 14.2000038,5.82857361 L16.9428642,5.82857361 C17.4714363,5.82857361 17.914294,6.21634797 18.2000086,6.69298728 L20.0285822,9.79518215 C20.1000108,9.91636164 20.142868,10.0698557 20.142868,10.2233497 Z M17.1714359,3.85713196 C17.1714359,4.7428473 16.4571494,5.45713387 15.571434,5.45713387 C14.6857187,5.45713387 13.9714321,4.7428473 13.9714321,3.85713196 C13.9714321,2.97141662 14.6857187,2.25713005 15.571434,2.25713005 C16.4571494,2.25713005 17.1714359,2.97141662 17.1714359,3.85713196 Z" id="" fill="#5C966A" fill-rule="nonzero"></path>
        <rect id="Rectangle" stroke="#5C966A" fill="#5C966A" x="9.5" y="2.5" width="1" height="16"></rect>
    </g>
</svg>