<?xml version="1.0" encoding="UTF-8"?>
<svg width="20px" height="20px" viewBox="0 0 20 20" version="1.1" xmlns="http://www.w3.org/2000/svg" xmlns:xlink="http://www.w3.org/1999/xlink">
    <!-- Generator: Sketch 57.1 (83088) - https://sketch.com -->
    <title>ico/bar</title>
    <desc>Created with Sketch.</desc>
    <g id="ico/bar" stroke="none" stroke-width="1" fill="none" fill-rule="evenodd">
        <path d="M16.883137,7.90908007 C16.883137,6.83359178 16.010571,5.9610258 14.9350827,5.9610258 L14.2857313,5.9610258 L14.2857313,9.85713434 L14.9350827,9.85713434 C16.010571,9.85713434 16.883137,8.98456837 16.883137,7.90908007 Z M0,15.7012972 L18.1818399,15.7012972 C18.1818399,17.1318995 17.0150365,18.2987028 15.5844342,18.2987028 L2.59740569,18.2987028 C1.16680334,18.2987028 0,17.1318995 0,15.7012972 Z M18.8311913,7.90908007 C18.8311913,10.0600567 17.0860593,11.8051886 14.9350827,11.8051886 L14.2857313,11.8051886 L14.2857313,12.1298643 C14.2857313,13.3778366 13.2609736,14.4025943 12.0130013,14.4025943 L4.87013568,14.4025943 C3.62216341,14.4025943 2.59740569,13.3778366 2.59740569,12.1298643 L2.59740569,4.66232295 C2.59740569,4.3072089 2.89164306,4.01297153 3.24675712,4.01297153 L14.9350827,4.01297153 C17.0860593,4.01297153 18.8311913,5.75810348 18.8311913,7.90908007 Z" id="" fill="#5C966A" fill-rule="nonzero"></path>
    </g>
</svg>