<?xml version="1.0" encoding="UTF-8"?>
<svg width="20px" height="20px" viewBox="0 0 20 20" version="1.1" xmlns="http://www.w3.org/2000/svg" xmlns:xlink="http://www.w3.org/1999/xlink">
    <!-- Generator: Sketch 57.1 (83088) - https://sketch.com -->
    <title>ico/coordenada</title>
    <desc>Created with Sketch.</desc>
    <g id="ico/coordenada" stroke="none" stroke-width="1" fill="none" fill-rule="evenodd">
        <path d="M14.3593909,11.2857075 L13.1428716,11.2857075 C12.7522462,11.2857075 12.4285851,10.9620464 12.4285851,10.5714209 L12.4285851,9.14284778 C12.4285851,8.75222231 12.7522462,8.42856121 13.1428716,8.42856121 L14.3593909,8.42856121 C13.8794796,6.82141644 12.6071567,5.54909349 11.0000119,5.06918221 L11.0000119,6.28570151 C11.0000119,6.67632698 10.6763508,6.99998808 10.2857254,6.99998808 L8.85715222,6.99998808 C8.46652676,6.99998808 8.14286566,6.67632698 8.14286566,6.28570151 L8.14286566,5.06918221 C6.53572088,5.54909349 5.26339794,6.82141644 4.78348665,8.42856121 L6.00000596,8.42856121 C6.39063143,8.42856121 6.71429253,8.75222231 6.71429253,9.14284778 L6.71429253,10.5714209 C6.71429253,10.9620464 6.39063143,11.2857075 6.00000596,11.2857075 L4.78348665,11.2857075 C5.26339794,12.8928522 6.53572088,14.1651752 8.14286566,14.6450865 L8.14286566,13.4285672 C8.14286566,13.0379417 8.46652676,12.7142806 8.85715222,12.7142806 L10.2857254,12.7142806 C10.6763508,12.7142806 11.0000119,13.0379417 11.0000119,13.4285672 L11.0000119,14.6450865 C12.6071567,14.1651752 13.8794796,12.8928522 14.3593909,11.2857075 Z M18.1428776,9.14284778 L18.1428776,10.5714209 C18.1428776,10.9620464 17.8192165,11.2857075 17.428591,11.2857075 L15.832607,11.2857075 C15.2857313,13.6852639 13.3995684,15.5714269 11.0000119,16.1183025 L11.0000119,17.7142866 C11.0000119,18.104912 10.6763508,18.4285731 10.2857254,18.4285731 L8.85715222,18.4285731 C8.46652676,18.4285731 8.14286566,18.104912 8.14286566,17.7142866 L8.14286566,16.1183025 C5.74330923,15.5714269 3.85714626,13.6852639 3.31027061,11.2857075 L1.71428657,11.2857075 C1.3236611,11.2857075 1,10.9620464 1,10.5714209 L1,9.14284778 C1,8.75222231 1.3236611,8.42856121 1.71428657,8.42856121 L3.31027061,8.42856121 C3.85714626,6.02900478 5.74330923,4.14284182 8.14286566,3.59596616 L8.14286566,1.99998212 C8.14286566,1.60935665 8.46652676,1.28569555 8.85715222,1.28569555 L10.2857254,1.28569555 C10.6763508,1.28569555 11.0000119,1.60935665 11.0000119,1.99998212 L11.0000119,3.59596616 C13.3995684,4.14284182 15.2857313,6.02900478 15.832607,8.42856121 L17.428591,8.42856121 C17.8192165,8.42856121 18.1428776,8.75222231 18.1428776,9.14284778 Z" id="ï›" fill="#5C966A" fill-rule="nonzero"></path>
    </g>
</svg>