<?xml version="1.0" encoding="UTF-8"?>
<svg width="20px" height="20px" viewBox="0 0 20 20" version="1.1" xmlns="http://www.w3.org/2000/svg" xmlns:xlink="http://www.w3.org/1999/xlink">
    <!-- Generator: Sketch 57.1 (83088) - https://sketch.com -->
    <title>ico/dificultad2</title>
    <desc>Created with Sketch.</desc>
    <g id="ico/dificultad2" stroke="none" stroke-width="1" fill="none" fill-rule="evenodd">
        <path d="M6.5,7.5 L10.5,11.9565217" id="Path-6" stroke="#5C966A" stroke-width="1.97368421"></path>
        <path d="M16.140625,5.5 L12,11.9565217" id="Path-6" stroke="#5C966A" stroke-width="1.97368421"></path>
        <path d="M16.9322917,1.68819456 C18.2439679,1.68819456 19.3072917,2.73935211 19.3072917,4.03602065 C19.3072917,5.33268919 18.2439679,6.38384674 16.9322917,6.38384674 C15.6206154,6.38384674 14.5572917,5.33268919 14.5572917,4.03602065 C14.5572917,2.73935211 15.6206154,1.68819456 16.9322917,1.68819456 Z M16.9322917,3.25341195 C16.4950662,3.25341195 16.140625,3.6037978 16.140625,4.03602065 C16.140625,4.4682435 16.4950662,4.81862934 16.9322917,4.81862934 C17.3695171,4.81862934 17.7239583,4.4682435 17.7239583,4.03602065 C17.7239583,3.6037978 17.3695171,3.25341195 16.9322917,3.25341195 Z" id="Combined-Shape" fill="#5C966A"></path>
        <path d="M5.75,4.13043478 C7.06167628,4.13043478 8.125,5.18159233 8.125,6.47826087 C8.125,7.77492941 7.06167628,8.82608696 5.75,8.82608696 C4.43832372,8.82608696 3.375,7.77492941 3.375,6.47826087 C3.375,5.18159233 4.43832372,4.13043478 5.75,4.13043478 Z M5.75,5.69565217 C5.31277457,5.69565217 4.95833333,6.04603802 4.95833333,6.47826087 C4.95833333,6.91048372 5.31277457,7.26086957 5.75,7.26086957 C6.18722543,7.26086957 6.54166667,6.91048372 6.54166667,6.47826087 C6.54166667,6.04603802 6.18722543,5.69565217 5.75,5.69565217 Z" id="Combined-Shape" fill="#5C966A"></path>
        <path d="M11.2916667,10.3913043 C12.6033429,10.3913043 13.6666667,11.4424619 13.6666667,12.7391304 C13.6666667,14.035799 12.6033429,15.0869565 11.2916667,15.0869565 C9.97999039,15.0869565 8.91666667,14.035799 8.91666667,12.7391304 C8.91666667,11.4424619 9.97999039,10.3913043 11.2916667,10.3913043 Z M11.2916667,11.9565217 C10.8544412,11.9565217 10.5,12.3069076 10.5,12.7391304 C10.5,13.1713533 10.8544412,13.5217391 11.2916667,13.5217391 C11.7288921,13.5217391 12.0833333,13.1713533 12.0833333,12.7391304 C12.0833333,12.3069076 11.7288921,11.9565217 11.2916667,11.9565217 Z" id="Combined-Shape" fill="#5C966A"></path>
        <polyline id="Path-8" stroke="#5C966A" stroke-width="1.97368421" stroke-linecap="round" stroke-linejoin="round" points="1 1.7826087 1 18.8860206 18.2892206 18.8860206"></polyline>
    </g>
</svg>