<?xml version="1.0" encoding="UTF-8"?>
<svg width="20px" height="20px" viewBox="0 0 20 20" version="1.1" xmlns="http://www.w3.org/2000/svg" xmlns:xlink="http://www.w3.org/1999/xlink">
    <!-- Generator: Sketch 57.1 (83088) - https://sketch.com -->
    <title>ico/direccion</title>
    <desc>Created with Sketch.</desc>
    <g id="ico/direccion" stroke="none" stroke-width="1" fill="none" fill-rule="evenodd">
        <path d="M15.7143044,10.9285642 L15.7143044,16.2857134 C15.7143044,16.6763389 15.3906433,17 15.0000179,17 L10.7142985,17 L10.7142985,12.7142806 L7.85714626,12.7142806 L7.85714626,17 L3.57143283,17 C3.18080736,17 2.85714626,16.6763389 2.85714626,16.2857134 L2.85714626,10.9285642 C2.85714626,10.9062427 2.86830699,10.8839213 2.86830699,10.8615998 L9.28572536,5.57141495 L15.7031437,10.8615998 C15.7143044,10.8839213 15.7143044,10.9062427 15.7143044,10.9285642 Z M18.2031467,10.158474 L17.5111816,10.9843678 C17.455378,11.0513322 17.3660921,11.0959751 17.2768063,11.1071358 C17.2656456,11.1071358 17.2544849,11.1071358 17.2433241,11.1071358 C17.1540383,11.1071358 17.0759132,11.0848144 17.0089488,11.0290107 L9.28572536,4.58927092 L1.56250186,11.0290107 C1.48437677,11.0848144 1.39509095,11.1182966 1.2946444,11.1071358 C1.20535858,11.0959751 1.11607276,11.0513322 1.06026912,10.9843678 L0.36830401,10.158474 C0.245536007,10.0133845 0.267857462,9.77900925 0.412946921,9.65624125 L8.43751006,2.97096542 C8.90626062,2.58033995 9.66519009,2.58033995 10.1339407,2.97096542 L12.8571582,5.24775385 L12.8571582,3.07141197 C12.8571582,2.87051887 13.0134084,2.71426868 13.2143015,2.71426868 L15.3571612,2.71426868 C15.5580543,2.71426868 15.7143044,2.87051887 15.7143044,3.07141197 L15.7143044,7.62498882 L18.1585038,9.65624125 C18.3035932,9.77900925 18.3259147,10.0133845 18.2031467,10.158474 Z" id="" fill="#5C966A" fill-rule="nonzero"></path>
    </g>
</svg>