<?xml version="1.0" encoding="UTF-8"?>
<svg width="20px" height="20px" viewBox="0 0 20 20" version="1.1" xmlns="http://www.w3.org/2000/svg" xmlns:xlink="http://www.w3.org/1999/xlink">
    <!-- Generator: Sketch 57.1 (83088) - https://sketch.com -->
    <title>ico/disc. cognitiva</title>
    <desc>Created with Sketch.</desc>
    <g id="ico/disc.-cognitiva" stroke="none" stroke-width="1" fill="none" fill-rule="evenodd">
        <path d="M1.32147492,7.81198434 C0.209741672,11.0588235 2.29342214,11.3590336 2.85746709,12.6580011 C4.05604047,15.418256 4.83733784,18.2619442 9.72109917,18.2619442 C14.2617391,18.2619442 15.7104083,17.1121298 17.3868789,12.6580011 C17.9522185,11.1559792 19.6544184,11.1559792 18.8797753,7.81198434" id="Path" stroke="#5C966A" stroke-width="1.8" stroke-linecap="round"></path>
        <path d="M4,4.71653346 C4.30862971,4.71653346 4.55882353,4.46633965 4.55882353,4.15770993 C4.55882353,3.84908022 4.30862971,3.5988864 4,3.5988864 C3.69137029,3.5988864 3.44117647,3.84908022 3.44117647,4.15770993 C3.44117647,4.46633965 3.69137029,4.71653346 4,4.71653346 Z" id="Oval" stroke="#5C966A" stroke-width="1.2" fill="#5C966A"></path>
        <path d="M16.3582813,4.71653346 C16.666911,4.71653346 16.9171048,4.46633965 16.9171048,4.15770993 C16.9171048,3.84908022 16.666911,3.5988864 16.3582813,3.5988864 C16.0496516,3.5988864 15.7994578,3.84908022 15.7994578,4.15770993 C15.7994578,4.46633965 16.0496516,4.71653346 16.3582813,4.71653346 Z" id="Oval" stroke="#5C966A" stroke-width="1.2" fill="#5C966A"></path>
        <path d="M12.2457351,2.11764706 C12.5543648,2.11764706 12.8045587,1.86745324 12.8045587,1.55882353 C12.8045587,1.25019382 12.5543648,1 12.2457351,1 C11.9371054,1 11.6869116,1.25019382 11.6869116,1.55882353 C11.6869116,1.86745324 11.9371054,2.11764706 12.2457351,2.11764706 Z" id="Oval" stroke="#5C966A" stroke-width="1.2" fill="#5C966A"></path>
        <circle id="Oval" stroke="#5C966A" stroke-width="0.7" fill="#5C966A" cx="10.122173" cy="10.5" r="1"></circle>
        <path d="M7.88687886,2.11764706 C8.19550857,2.11764706 8.44570239,1.86745324 8.44570239,1.55882353 C8.44570239,1.25019382 8.19550857,1 7.88687886,1 C7.57824914,1 7.32805533,1.25019382 7.32805533,1.55882353 C7.32805533,1.86745324 7.57824914,2.11764706 7.88687886,2.11764706 Z" id="Oval" stroke="#5C966A" stroke-width="1.2" fill="#5C966A"></path>
        <path d="M7.08828868,13.6072206 C7.69513566,14.3523186 8.66378445,14.7248676 9.99423505,14.7248676 C11.3246856,14.7248676 12.2614602,14.3523186 12.8045587,13.6072206" id="Path-2" stroke="#5C966A" stroke-width="1.5" stroke-linecap="round"></path>
    </g>
</svg>