<?xml version="1.0" encoding="UTF-8"?>
<svg width="20px" height="20px" viewBox="0 0 20 20" version="1.1" xmlns="http://www.w3.org/2000/svg" xmlns:xlink="http://www.w3.org/1999/xlink">
    <!-- Generator: Sketch 57.1 (83088) - https://sketch.com -->
    <title>ico/disc. fisica</title>
    <desc>Created with Sketch.</desc>
    <g id="ico/disc.-fisica" stroke="none" stroke-width="1" fill="none" fill-rule="evenodd">
        <path d="M11.9174243,13.1049061 L13.0558185,15.3816945 C12.1964425,18.0379477 9.71876099,19.8571463 6.92857909,19.8571463 C3.39062845,19.8571463 0.5,16.9665178 0.5,13.4285672 C0.5,10.7276711 2.19643059,8.31695393 4.72991576,7.39061354 L4.91964813,8.85266886 C3.10044953,9.65624125 1.92857313,11.4419577 1.92857313,13.4285672 C1.92857313,16.1852669 4.17187938,18.4285731 6.92857909,18.4285731 C9.79688608,18.4285731 12.1183174,15.9732131 11.9174243,13.1049061 Z M18.033503,14.2209788 L18.6808252,15.4933018 L15.823679,16.9218749 C15.7232324,16.9776785 15.6116252,17 15.5000179,17 C15.2321604,17 14.9754637,16.8437498 14.8638564,16.6093745 L12.1964425,11.2857075 L6.92857909,11.2857075 C6.57143581,11.2857075 6.25893544,11.0066893 6.21429253,10.649546 L5.14286268,1.95533921 C5.13170195,1.84373193 5.17634486,1.59819593 5.20982704,1.48658865 C5.42188087,0.716498446 6.13616743,0.214265704 6.92857909,0.214265704 C7.91072312,0.214265704 8.71429551,1.01783809 8.71429551,1.99998212 C8.71429551,3.01560833 7.8214373,3.88614508 6.79465036,3.77453781 L7.20759728,6.99998808 L11.9285851,6.99998808 L11.9285851,8.42856121 L7.38616892,8.42856121 L7.56474056,9.85713434 L12.6428716,9.85713434 C12.9107291,9.85713434 13.1674258,10.0133845 13.2790331,10.2477598 L15.823679,15.3258909 L18.033503,14.2209788 Z" id="" fill="#5C966A" fill-rule="nonzero"></path>
    </g>
</svg>