<?xml version="1.0" encoding="UTF-8"?>
<svg width="20px" height="20px" viewBox="0 0 20 20" version="1.1" xmlns="http://www.w3.org/2000/svg" xmlns:xlink="http://www.w3.org/1999/xlink">
    <!-- Generator: Sketch 57.1 (83088) - https://sketch.com -->
    <title>ico/disc. auditiva</title>
    <desc>Created with Sketch.</desc>
    <g id="ico/disc.-auditiva" stroke="none" stroke-width="1" fill="none" fill-rule="evenodd">
        <path d="M1.42857313,19.1428597 C1.42857313,19.5334852 1.10491203,19.8571463 0.714286566,19.8571463 C0.3236611,19.8571463 0,19.5334852 0,19.1428597 C0,18.7522342 0.3236611,18.4285731 0.714286566,18.4285731 C1.10491203,18.4285731 1.42857313,18.7522342 1.42857313,19.1428597 Z M3.57143283,17 C3.57143283,17.3906255 3.24777173,17.7142866 2.85714626,17.7142866 C2.4665208,17.7142866 2.1428597,17.3906255 2.1428597,17 C2.1428597,16.6093745 2.4665208,16.2857134 2.85714626,16.2857134 C3.24777173,16.2857134 3.57143283,16.6093745 3.57143283,17 Z M4.07366557,12.9263344 L6.93081183,15.7834807 L5.92634635,16.7879462 L3.06920009,13.9307999 L4.07366557,12.9263344 Z M7.85715222,12.7142806 C7.85715222,13.1049061 7.53349112,13.4285672 7.14286566,13.4285672 C6.75224019,13.4285672 6.42857909,13.1049061 6.42857909,12.7142806 C6.42857909,12.3236551 6.75224019,11.999994 7.14286566,11.999994 C7.53349112,11.999994 7.85715222,12.3236551 7.85715222,12.7142806 Z M15.7477866,9.14284778 C15.7477866,10.9955286 14.8772499,11.9888333 14.1183204,12.8705308 C13.4151946,13.6741032 12.8571582,14.3102647 12.8571582,15.5714269 C12.8571582,17.9375011 10.937513,19.8571463 8.57143879,19.8571463 C8.18081332,19.8571463 7.85715222,19.5334852 7.85715222,19.1428597 C7.85715222,18.7522342 8.18081332,18.4285731 8.57143879,18.4285731 C10.1451014,18.4285731 11.4285851,17.1450895 11.4285851,15.5714269 C11.4285851,13.7745497 12.2879611,12.7924057 13.0357298,11.9330297 C13.7276949,11.140618 14.3192135,10.4598136 14.3192135,9.14284778 C14.3192135,6.38614806 12.0759073,4.14284182 9.31920754,4.14284182 C6.56250782,4.14284182 4.31920158,6.38614806 4.31920158,9.14284778 C4.31920158,9.53347324 3.99554048,9.85713434 3.60491501,9.85713434 C3.21428955,9.85713434 2.89062845,9.53347324 2.89062845,9.14284778 C2.89062845,5.5937364 5.77009616,2.71426868 9.31920754,2.71426868 C12.8683189,2.71426868 15.7477866,5.5937364 15.7477866,9.14284778 Z M10.0000119,10.5714209 C10.0000119,10.9620464 9.67635082,11.2857075 9.28572536,11.2857075 C8.89509989,11.2857075 8.57143879,10.9620464 8.57143879,10.5714209 C8.57143879,10.1807954 8.89509989,9.85713434 9.28572536,9.85713434 C9.67635082,9.85713434 10.0000119,10.1807954 10.0000119,10.5714209 Z M13.2143015,9.14284778 C13.2143015,9.53347324 12.8906404,9.85713434 12.5000149,9.85713434 C12.1093894,9.85713434 11.7857283,9.53347324 11.7857283,9.14284778 C11.7857283,7.75891756 10.6696556,6.6428448 9.28572536,6.6428448 C7.91295586,6.6428448 6.78572237,7.75891756 6.78572237,9.14284778 C6.78572237,9.53347324 6.46206127,9.85713434 6.07143581,9.85713434 C5.68081034,9.85713434 5.35714924,9.53347324 5.35714924,9.14284778 C5.35714924,6.97766662 7.1205442,5.21427166 9.28572536,5.21427166 C11.4509065,5.21427166 13.2143015,6.97766662 13.2143015,9.14284778 Z M17.6116281,5.9173975 C17.7567176,6.28570151 17.5669852,6.69864843 17.1986812,6.84373789 C17.1205561,6.87722008 17.0312703,6.8883808 16.9419845,6.8883808 C16.6629663,6.8883808 16.3839481,6.72096989 16.2835016,6.43079097 C15.7812688,5.12498584 14.9107321,3.98659163 13.7834986,3.13837633 C13.4709982,2.90400105 13.4040338,2.45757195 13.6384091,2.14507158 C13.8839451,1.8325712 14.3303742,1.76560684 14.6428746,1.99998212 C15.9821619,3.0044476 17.0089488,4.36605637 17.6116281,5.9173975 Z M19.9553809,5.01337857 C20.0893097,5.38168258 19.910738,5.7946295 19.542434,5.93971896 C19.4531482,5.97320114 19.3750231,5.98436187 19.2857373,5.98436187 C18.9955584,5.98436187 18.7277009,5.81695095 18.6160936,5.52677204 C17.94645,3.78569853 16.796895,2.26783958 15.3013575,1.14060609 C14.9776964,0.906230815 14.9218928,0.459801711 15.1562681,0.147301339 C15.3906433,-0.176359762 15.8370725,-0.232163399 16.1495728,0.00221187994 C17.8683249,1.28569555 19.1852907,3.02676906 19.9553809,5.01337857 Z" id="" fill="#5C966A" fill-rule="nonzero"></path>
    </g>
</svg>