<?xml version="1.0" encoding="UTF-8"?>
<svg width="20px" height="20px" viewBox="0 0 20 20" version="1.1" xmlns="http://www.w3.org/2000/svg" xmlns:xlink="http://www.w3.org/1999/xlink">
    <!-- Generator: Sketch 57.1 (83088) - https://sketch.com -->
    <title>ico/disc. visual</title>
    <desc>Created with Sketch.</desc>
    <g id="ico/disc.-visual" stroke="none" stroke-width="1" fill="none" fill-rule="evenodd">
        <path d="M3.73884374,14.991069 C3.71652229,14.991069 3.69420083,14.9799083 3.67187938,14.9687476 C2.36607425,14.0982108 1.06026912,12.6696377 0.234375279,11.3415111 C0.0781250931,11.1182966 0,10.8504391 0,10.5714209 C0,9.99106307 0.401786193,9.52231251 0.725447293,9.08704414 C2.02009169,7.32364918 3.75000447,5.87275459 5.77009616,5.01337857 C5.60268525,4.71203892 4.54241613,2.85935814 4.54241613,2.65846505 C4.54241613,2.52453632 4.62054122,2.40176831 4.7321485,2.33480395 C4.95536305,2.21203594 5.95982853,1.62051738 6.16072163,1.62051738 C6.28348963,1.62051738 6.40625764,1.68748175 6.473222,1.79908902 L7.85715222,4.35489564 C8.56027806,4.20980618 9.28572536,4.14284182 10.0000119,4.14284182 C14.0401953,4.14284182 17.6339496,6.43079097 19.7768093,9.8013307 C19.9218987,10.0245453 20.0000238,10.2924027 20.0000238,10.5714209 C20.0000238,10.8504391 19.9218987,11.1182966 19.7768093,11.3415111 C18.4486827,13.4285672 16.5067161,15.1584799 14.2299277,16.1294632 C14.3973386,16.4308029 15.4576077,18.2834837 15.4576077,18.4843768 C15.4576077,18.6183055 15.3906433,18.7410735 15.2678753,18.8080379 C15.0446608,18.9308059 14.0401953,19.5223244 13.8504629,19.5223244 C13.7165342,19.5223244 13.5937662,19.4553601 13.5268018,19.3437528 L12.1428716,16.7879462 L11.4285851,15.4598196 L6.473222,6.30802297 L6.5513471,6.22989788 C6.17188236,6.38614806 5.80357835,6.55355898 5.44643506,6.75445207 C5.5803638,7.01114881 10.9040309,16.7879462 10.9040309,16.8660713 C10.9040309,16.9218749 10.8593879,16.9553571 10.8035843,16.9665178 C10.5580483,17.0223215 10.2455479,17 10.0000119,17 C9.87724392,17 9.37501118,17.0223215 9.33036827,16.9218749 L4.24107648,7.535703 C3.91741538,7.77007828 3.61607574,8.02677502 3.32589682,8.29463248 C3.57143283,8.72990086 7.83483077,16.5758924 7.83483077,16.6428567 C7.83483077,16.7321425 7.77902713,16.754464 7.71206276,16.754464 C7.5223304,16.754464 6.03795363,16.2968742 5.98214999,16.1964276 L4.79911286,13.9977643 L2.29910988,9.38838378 C1.98660951,9.76784852 1.69643059,10.158474 1.42857313,10.5714209 C1.57366259,10.7834747 1.76339496,11.0066893 1.88616296,11.2299038 C2.04241315,11.5200828 3.85045102,14.8124974 3.85045102,14.8794618 C3.85045102,14.9352654 3.79464738,14.991069 3.73884374,14.991069 Z M13.0022476,13.8526748 L13.5491233,14.868301 C15.6361794,14.0200857 17.3549314,12.4575839 18.5714507,10.5714209 C17.3326099,8.66293649 15.569215,7.07811317 13.4486767,6.22989788 C14.4419815,7.17855972 15.0000179,8.48436485 15.0000179,9.85713434 C15.0000179,11.4307969 14.2634099,12.9151737 13.0022476,13.8526748 Z M9.464297,6.99998808 C9.464297,7.290167 9.709833,7.535703 10.0000119,7.535703 C10.6138519,7.535703 11.2053705,7.78123901 11.6406389,8.21650739 C12.0759073,8.65177576 12.3214433,9.24329432 12.3214433,9.85713434 C12.3214433,10.1473133 12.5669793,10.3928493 12.8571582,10.3928493 C13.1473371,10.3928493 13.3928731,10.1473133 13.3928731,9.85713434 C13.3928731,7.98213211 11.8750142,6.46427315 10.0000119,6.46427315 C9.709833,6.46427315 9.464297,6.70980916 9.464297,6.99998808 Z M13.5491233,6.27454079 L13.4486767,6.22989788 L13.5268018,6.30802297 L13.5491233,6.27454079 Z" id="" fill="#5C966A" fill-rule="nonzero"></path>
    </g>
</svg>