<?xml version="1.0" encoding="UTF-8"?>
<svg width="20px" height="20px" viewBox="0 0 20 20" version="1.1" xmlns="http://www.w3.org/2000/svg" xmlns:xlink="http://www.w3.org/1999/xlink">
    <!-- Generator: Sketch 57.1 (83088) - https://sketch.com -->
    <title>ico/distancia</title>
    <desc>Created with Sketch.</desc>
    <g id="ico/distancia" stroke="none" stroke-width="1" fill="none" fill-rule="evenodd">
        <path d="M20.0000238,9.85713434 C20.0000238,10.0468667 19.9218987,10.2254384 19.78797,10.3593671 L16.9308238,13.2165133 C16.796895,13.3504421 16.6183234,13.4285672 16.428591,13.4285672 C16.0379655,13.4285672 15.7143044,13.1049061 15.7143044,12.7142806 L15.7143044,11.2857015 L4.28571939,11.2857015 L4.28571939,12.7142806 C4.28571939,13.1049061 3.96205829,13.4285672 3.57143283,13.4285672 C3.38170046,13.4285672 3.20312882,13.3504421 3.06920009,13.2165133 L0.212053824,10.3593671 C0.0781250931,10.2254384 0,10.0468667 0,9.85713434 C0,9.66740197 0.0781250931,9.48883033 0.212053824,9.3549016 L3.06920009,6.49775534 C3.20312882,6.36382661 3.38170046,6.28570151 3.57143283,6.28570151 C3.96205829,6.28570151 4.28571939,6.60936261 4.28571939,6.99998808 L4.28571939,8.42856121 L15.7143044,8.42856121 L15.7143044,6.99998808 C15.7143044,6.60936261 16.0379655,6.28570151 16.428591,6.28570151 C16.6183234,6.28570151 16.796895,6.36382661 16.9308238,6.49775534 L19.78797,9.3549016 C19.9218987,9.48883033 20.0000238,9.66740197 20.0000238,9.85713434 Z" id="ï¾" fill="#5C966A" fill-rule="nonzero"></path>
    </g>
</svg>