<?xml version="1.0" encoding="UTF-8"?>
<svg width="20px" height="20px" viewBox="0 0 20 20" version="1.1" xmlns="http://www.w3.org/2000/svg" xmlns:xlink="http://www.w3.org/1999/xlink">
    <!-- Generator: Sketch 57.1 (83088) - https://sketch.com -->
    <title>ico/duración</title>
    <desc>Created with Sketch.</desc>
    <g id="ico/duración" stroke="none" stroke-width="1" fill="none" fill-rule="evenodd">
        <path d="M11.0000119,5.92855823 L11.0000119,10.9285642 C11.0000119,11.1294573 10.8437617,11.2857075 10.6428686,11.2857075 L7.07143581,11.2857075 C6.87054271,11.2857075 6.71429253,11.1294573 6.71429253,10.9285642 L6.71429253,10.2142776 C6.71429253,10.0133845 6.87054271,9.85713434 7.07143581,9.85713434 L9.57143879,9.85713434 L9.57143879,5.92855823 C9.57143879,5.72766513 9.72768898,5.57141495 9.92858207,5.57141495 L10.6428686,5.57141495 C10.8437617,5.57141495 11.0000119,5.72766513 11.0000119,5.92855823 Z M15.6428746,9.85713434 C15.6428746,6.50891607 12.9196571,3.78569853 9.57143879,3.78569853 C6.22322051,3.78569853 3.50000298,6.50891607 3.50000298,9.85713434 C3.50000298,13.2053526 6.22322051,15.9285702 9.57143879,15.9285702 C12.9196571,15.9285702 15.6428746,13.2053526 15.6428746,9.85713434 Z M18.1428776,9.85713434 C18.1428776,14.5892828 14.3035873,18.4285731 9.57143879,18.4285731 C4.83929029,18.4285731 1,14.5892828 1,9.85713434 C1,5.12498584 4.83929029,1.28569555 9.57143879,1.28569555 C14.3035873,1.28569555 18.1428776,5.12498584 18.1428776,9.85713434 Z" id="" fill="#5C966A" fill-rule="nonzero"></path>
    </g>
</svg>