<?xml version="1.0" encoding="UTF-8"?>
<svg width="20px" height="20px" viewBox="0 0 20 20" version="1.1" xmlns="http://www.w3.org/2000/svg" xmlns:xlink="http://www.w3.org/1999/xlink">
    <!-- Generator: Sketch 57.1 (83088) - https://sketch.com -->
    <title>ico/email</title>
    <desc>Created with Sketch.</desc>
    <g id="ico/email" stroke="none" stroke-width="1" fill="none" fill-rule="evenodd">
        <path d="M19.0000215,7.70311511 L19.0000215,15.678571 C19.0000215,16.5625007 18.2768063,17.2857158 17.3928767,17.2857158 L2.60714477,17.2857158 C1.72321515,17.2857158 1,16.5625007 1,15.678571 L1,7.70311511 C1.30133964,8.03458872 1.64285791,8.32588371 2.01451014,8.57700008 C3.68192284,9.71204608 5.36942485,10.8470921 7.00670359,12.042406 C7.85045459,12.6651746 8.8950987,13.4285684 9.98996607,13.4285684 L10.0100554,13.4285684 C11.1049228,13.4285684 12.1495669,12.6651746 12.9933179,12.042406 C14.6305966,10.8571367 16.3180986,9.71204608 17.995556,8.57700008 C18.3571635,8.32588371 18.6986818,8.03458872 19.0000215,7.70311511 Z M19.0000215,4.74998659 C19.0000215,5.87498793 18.1663151,6.88949807 17.2823855,7.50222201 C15.7154193,8.58704473 14.1384085,9.67186746 12.581487,10.7667348 C11.9285845,11.2187443 10.8236724,12.1428525 10.0100554,12.1428525 L9.98996607,12.1428525 C9.17634903,12.1428525 8.071437,11.2187443 7.41853444,10.7667348 C5.86161294,9.67186746 4.28460213,8.58704473 2.72768063,7.50222201 C2.01451014,7.02007858 1,5.88503258 1,4.970969 C1,3.98659282 1.53236671,3.14284182 2.60714477,3.14284182 L17.3928767,3.14284182 C18.2667617,3.14284182 19.0000215,3.86605696 19.0000215,4.74998659 Z" id="" fill="#5C966A" fill-rule="nonzero"></path>
    </g>
</svg>