<?xml version="1.0" encoding="UTF-8"?>
<svg width="20px" height="20px" viewBox="0 0 20 20" version="1.1" xmlns="http://www.w3.org/2000/svg" xmlns:xlink="http://www.w3.org/1999/xlink">
    <!-- Generator: Sketch 57.1 (83088) - https://sketch.com -->
    <title>ico/empresa</title>
    <desc>Created with Sketch.</desc>
    <g id="ico/empresa" stroke="none" stroke-width="1" fill="none" fill-rule="evenodd">
        <path d="M7.42857909,4.42855763 L12.5714424,4.42855763 L12.5714424,3.14284182 L7.42857909,3.14284182 L7.42857909,4.42855763 Z M3.89286059,4.42855763 L3.89286059,17.2857158 L3.25000268,17.2857158 C2.01451014,17.2857158 1,16.2712057 1,15.0357131 L1,6.67856032 C1,5.44306777 2.01451014,4.42855763 3.25000268,4.42855763 L3.89286059,4.42855763 Z M15.142874,4.42855763 L15.142874,17.2857158 L4.85714746,17.2857158 L4.85714746,4.42855763 L6.14286327,4.42855763 L6.14286327,2.82141286 C6.14286327,2.28904616 6.57478343,1.857126 7.10715014,1.857126 L12.8928713,1.857126 C13.425238,1.857126 13.8571582,2.28904616 13.8571582,2.82141286 L13.8571582,4.42855763 L15.142874,4.42855763 Z M19.0000215,6.67856032 L19.0000215,15.0357131 C19.0000215,16.2712057 17.9855113,17.2857158 16.7500188,17.2857158 L16.1071609,17.2857158 L16.1071609,4.42855763 L16.7500188,4.42855763 C17.9855113,4.42855763 19.0000215,5.44306777 19.0000215,6.67856032 Z" id="" fill="#5C966A" fill-rule="nonzero"></path>
    </g>
</svg>