<?xml version="1.0" encoding="UTF-8"?>
<svg width="20px" height="20px" viewBox="0 0 20 20" version="1.1" xmlns="http://www.w3.org/2000/svg" xmlns:xlink="http://www.w3.org/1999/xlink">
    <!-- Generator: Sketch 57.1 (83088) - https://sketch.com -->
    <title>ico/equipamientos</title>
    <desc>Created with Sketch.</desc>
    <g id="ico/equipamientos" stroke="none" stroke-width="1" fill="none" fill-rule="evenodd">
        <path d="M3.76556444,4.75 C3.13516035,4.75 2.60340909,5.21942055 2.52521709,5.84495658 L1.02521709,17.8449566 C1.01878821,17.8963876 1.01556444,17.9481687 1.01556444,18 C1.01556444,18.6903559 1.5752085,19.25 2.26556444,19.25 L17.7344356,19.25 C17.7862668,19.25 17.8380479,19.2467762 17.889479,19.2403473 C18.5745039,19.1547192 19.060411,18.5299815 18.9747829,17.8449566 L17.4747829,5.84495658 C17.3965909,5.21942055 16.8648396,4.75 16.2344356,4.75 L3.76556444,4.75 Z" id="Rectangle" stroke="#5C966A" stroke-width="1.5"></path>
        <path d="M14.4951691,3.5 C14.5871761,3.5 14.6676829,3.4783251 14.745649,3.43284485 C14.8273825,3.38516698 14.8885301,3.32482395 14.9351835,3.24651287 C14.9789654,3.17302195 15,3.0956445 15,3.00483092 C15,2.91282389 14.9783251,2.83231712 14.9328448,2.75435097 C14.8861267,2.67426264 14.8257374,2.61387334 14.745649,2.56715515 C14.6676829,2.5216749 14.5871761,2.5 14.4951691,2.5 C14.4043555,2.5 14.3269781,2.52103464 14.2534871,2.56481647 C14.175176,2.61146988 14.114833,2.67261748 14.0671552,2.75435097 C14.0216749,2.83231712 14,2.91282389 14,3.00483092 C14,3.1496935 14.0442951,3.25747813 14.1434093,3.35659242 C14.2425213,3.45570483 14.3503063,3.5 14.4951691,3.5 Z M14.5,-0.5 C15.2290651,-0.5 15.9052276,-0.320733158 16.5222764,0.0382102265 C17.1241053,0.393592185 17.6056634,0.874820242 17.9629759,1.47910575 C18.3205688,2.09301009 18.5,2.76886335 18.5,3.49759615 C18.5,4.05279847 18.3672349,4.6719435 18.1052661,5.36128384 C17.8863378,5.92505765 17.5857465,6.52999949 17.1994165,7.18448845 C16.8873553,7.69329118 16.5309808,8.22134569 16.1318207,8.76674976 C15.8518362,9.15352127 15.5554679,9.53195404 15.2403425,9.90485148 L14.5,10.7679912 L14.1204822,10.3255246 L13.7572696,9.9020467 C13.4445321,9.53195404 13.1481638,9.15352127 12.8697074,8.76884911 C12.4690192,8.22134569 12.1126447,7.69329118 11.7961976,7.17719892 C11.4142535,6.52999949 11.1136622,5.92505765 10.8934342,5.35790054 C10.6327651,4.6719435 10.5,4.05279847 10.5,3.49759615 C10.5,2.76886335 10.6794312,2.09301009 11.038686,1.47627409 C11.3943352,0.874822706 11.8758946,0.39359398 12.4805534,0.0365517081 C13.0947724,-0.320733158 13.7709349,-0.5 14.5,-0.5 Z" id="" stroke="#FFFFFF" fill="#5C966A" fill-rule="nonzero"></path>
        <path d="M7.49516908,11 C7.67552425,11 7.8429944,10.9549119 7.99758454,10.8647343 C8.15217469,10.7745567 8.27455671,10.653785 8.3647343,10.5024155 C8.45491188,10.3510459 8.5,10.1851861 8.5,10.0048309 C8.5,9.82447575 8.45491188,9.6570056 8.3647343,9.50241546 C8.27455671,9.34782531 8.15217469,9.22544329 7.99758454,9.1352657 C7.8429944,9.04508812 7.67552425,9 7.49516908,9 C7.31481391,9 7.14895406,9.04508812 6.99758454,9.1352657 C6.84621502,9.22544329 6.72544329,9.34782531 6.6352657,9.50241546 C6.54508812,9.6570056 6.5,9.82447575 6.5,10.0048309 C6.5,10.2818049 6.59661739,10.5169072 6.78985507,10.7101449 C6.98309179,10.9033826 7.21819507,11 7.49516908,11 Z M7.5,7 C8.14146942,7 8.7308106,7.15624844 9.26804124,7.46875 C9.79725351,7.78125156 10.2182115,8.20192308 10.5309278,8.73076923 C10.8436442,9.26763089 11,9.85656731 11,10.4975962 C11,10.9863806 10.8797263,11.5472725 10.6391753,12.1802885 C10.4306977,12.7171501 10.1420408,13.2980738 9.77319588,13.9230769 C9.4684979,14.4198743 9.11970414,14.936696 8.72680412,15.4735577 C8.45417962,15.8501621 8.16552271,16.2187482 7.86082474,16.5793269 L7.5,17 L7.13917526,16.5793269 C6.83447729,16.2187482 6.54582038,15.8501621 6.27319588,15.4735577 C5.88029586,14.936696 5.5315021,14.4198743 5.22680412,13.9230769 C4.85795921,13.2980738 4.5693023,12.7171501 4.36082474,12.1802885 C4.12027371,11.5472725 4,10.9863806 4,10.4975962 C4,9.85656731 4.15635582,9.26763089 4.46907216,8.73076923 C4.78178851,8.20192308 5.20274914,7.78125156 5.73195876,7.46875 C6.2691894,7.15624844 6.85853058,7 7.5,7 Z" id="" fill="#5C966A" fill-rule="nonzero"></path>
    </g>
</svg>