<?xml version="1.0" encoding="UTF-8"?>
<svg width="20px" height="20px" viewBox="0 0 20 20" version="1.1" xmlns="http://www.w3.org/2000/svg" xmlns:xlink="http://www.w3.org/1999/xlink">
    <!-- Generator: Sketch 57.1 (83088) - https://sketch.com -->
    <title>ico/fecha</title>
    <desc>Created with Sketch.</desc>
    <g id="ico/fecha" stroke="none" stroke-width="1" fill="none" fill-rule="evenodd">
        <text id="calendar-o---FontAwesome" font-family="FontAwesome" font-size="20" font-weight="normal" fill="#C4DDCA">
            <tspan x="0" y="17"></tspan>
        </text>
        <path d="M14.5424281,10.6160638 L8.82813552,16.3303563 C8.68304607,16.4642851 8.45983151,16.4642851 8.31474205,16.3303563 L5.10045251,13.1160668 C4.96652378,12.9709773 4.96652378,12.7477628 5.10045251,12.6138341 L5.61384598,12.1004406 C5.74777471,11.9665119 5.97098926,11.9665119 6.11607872,12.1004406 L8.57143879,14.5558007 L13.5268018,9.60043761 C13.6718913,9.46650888 13.8951058,9.46650888 14.0290346,9.60043761 L14.5424281,10.1138311 C14.6763568,10.2477598 14.6763568,10.4709744 14.5424281,10.6160638 Z M1.42857313,18.4285731 L17.1428776,18.4285731 L17.1428776,6.99998808 L1.42857313,6.99998808 L1.42857313,18.4285731 Z M5.71429253,4.85712838 L5.71429253,1.64283884 C5.71429253,1.44194574 5.55804234,1.28569555 5.35714924,1.28569555 L4.64286268,1.28569555 C4.44196958,1.28569555 4.28571939,1.44194574 4.28571939,1.64283884 L4.28571939,4.85712838 C4.28571939,5.05802148 4.44196958,5.21427166 4.64286268,5.21427166 L5.35714924,5.21427166 C5.55804234,5.21427166 5.71429253,5.05802148 5.71429253,4.85712838 Z M14.2857313,4.85712838 L14.2857313,1.64283884 C14.2857313,1.44194574 14.1294811,1.28569555 13.928588,1.28569555 L13.2143015,1.28569555 C13.0134084,1.28569555 12.8571582,1.44194574 12.8571582,1.64283884 L12.8571582,4.85712838 C12.8571582,5.05802148 13.0134084,5.21427166 13.2143015,5.21427166 L13.928588,5.21427166 C14.1294811,5.21427166 14.2857313,5.05802148 14.2857313,4.85712838 Z M18.5714507,4.14284182 L18.5714507,18.4285731 C18.5714507,19.2098241 17.9241285,19.8571463 17.1428776,19.8571463 L1.42857313,19.8571463 C0.6473222,19.8571463 0,19.2098241 0,18.4285731 L0,4.14284182 C0,3.36159088 0.6473222,2.71426868 1.42857313,2.71426868 L2.85714626,2.71426868 L2.85714626,1.64283884 C2.85714626,0.660694808 3.66071865,-0.142877579 4.64286268,-0.142877579 L5.35714924,-0.142877579 C6.33929327,-0.142877579 7.14286566,0.660694808 7.14286566,1.64283884 L7.14286566,2.71426868 L11.4285851,2.71426868 L11.4285851,1.64283884 C11.4285851,0.660694808 12.2321574,-0.142877579 13.2143015,-0.142877579 L13.928588,-0.142877579 C14.9107321,-0.142877579 15.7143044,0.660694808 15.7143044,1.64283884 L15.7143044,2.71426868 L17.1428776,2.71426868 C17.9241285,2.71426868 18.5714507,3.36159088 18.5714507,4.14284182 Z" id="" fill="#5C966A" fill-rule="nonzero"></path>
    </g>
</svg>