<?xml version="1.0" encoding="UTF-8"?>
<svg width="20px" height="20px" viewBox="0 0 20 20" version="1.1" xmlns="http://www.w3.org/2000/svg" xmlns:xlink="http://www.w3.org/1999/xlink">
    <!-- Generator: Sketch 57.1 (83088) - https://sketch.com -->
    <title>ico/homologación</title>
    <desc>Created with Sketch.</desc>
    <g id="ico/homologación" stroke="none" stroke-width="1" fill="none" fill-rule="evenodd">
        <path d="M17.3543044,4.5 C17.3543044,3.63537823 17.0139228,3 16.7828746,3 L3.21142985,3 C2.9803816,3 2.64,3.63537823 2.64,4.5 L2.64,8.5 C2.64,9.36462177 2.9803816,10 3.21142985,10 L16.7828746,10 C17.0139228,10 17.3543044,9.36462177 17.3543044,8.5 L17.3543044,4.5 Z" id="" stroke="#5C966A" fill-rule="nonzero"></path>
        <path d="M17.8543044,12.25 L17.8543044,15.75 C17.8543044,16.7161458 17.3743932,17.5 16.7828746,17.5 L3.21142985,17.5 C2.61991129,17.5 2.14,16.7161458 2.14,15.75 L2.14,12.25 C2.14,11.2838542 2.61991129,10.5 3.21142985,10.5 L16.7828746,10.5 C17.3743932,10.5 17.8543044,11.2838542 17.8543044,12.25 Z" id="" fill="#5C966A" fill-rule="nonzero"></path>
    </g>
</svg>