<?xml version="1.0" encoding="UTF-8"?>
<svg width="20px" height="20px" viewBox="0 0 20 20" version="1.1" xmlns="http://www.w3.org/2000/svg" xmlns:xlink="http://www.w3.org/1999/xlink">
    <!-- Generator: Sketch 57.1 (83088) - https://sketch.com -->
    <title>ico/mesas</title>
    <desc>Created with Sketch.</desc>
    <g id="ico/mesas" stroke="none" stroke-width="1" fill="none" fill-rule="evenodd">
        <rect id="Rectangle" fill="#5C966A" fill-rule="nonzero" x="2.85714286" y="4" width="14.2857143" height="2.94736842"></rect>
        <path d="M6.297857,13.5789474 L2.97285714,13.5789474 L1.57022865,17.0158168 C1.42116838,17.3810601 1.59641937,17.7979856 1.9616627,17.9470458 C2.04734848,17.9820153 2.13901338,18 2.2315602,18 L4.493571,18 L4.493571,18 L6.297857,13.5789474 Z" id="Path" fill="#5C966A" fill-rule="nonzero"></path>
        <path d="M15.5235714,9.89473684 L14.6214286,7.68421053 L11.296429,7.68421053 L12.198571,9.89473684 L7.801429,9.89473684 L8.703571,7.68421053 L5.37857143,7.68421053 L4.47714286,9.89473684 L0.714285714,9.89473684 C0.319796607,9.89473684 6.27113202e-17,10.2145334 0,10.6090226 L0,12.1278195 C4.83109822e-17,12.5223087 0.319796607,12.8421053 0.714285714,12.8421053 L19.2857143,12.8421053 C19.6802034,12.8421053 20,12.5223087 20,12.1278195 L20,10.6090226 C20,10.2145334 19.6802034,9.89473684 19.2857143,9.89473684 L15.5235714,9.89473684 L15.5235714,9.89473684 Z" id="Path" fill="#5C966A" fill-rule="nonzero"></path>
        <path d="M15.506429,18 L17.7684398,18 C18.1629289,18 18.4827255,17.6802034 18.4827255,17.2857143 C18.4827255,17.1931675 18.4647408,17.1015026 18.4297713,17.0158168 L17.0271429,13.5789474 L17.0271429,13.5789474 L13.7021429,13.5789474 L15.506429,18 Z" id="Path" fill="#5C966A" fill-rule="nonzero"></path>
    </g>
</svg>