<?xml version="1.0" encoding="UTF-8"?>
<svg width="20px" height="20px" viewBox="0 0 20 20" version="1.1" xmlns="http://www.w3.org/2000/svg" xmlns:xlink="http://www.w3.org/1999/xlink">
    <!-- Generator: Sketch 57.1 (83088) - https://sketch.com -->
    <title>ico/municipio</title>
    <desc>Created with Sketch.</desc>
    <g id="ico/municipio" stroke="none" stroke-width="1" fill="none" fill-rule="evenodd">
        <path d="M19.8424839,5.21961526 L15.797264,1.12059106 C15.638594,0.959802979 15.3576038,0.959802979 15.1989338,1.12059106 L11.1239031,5.25021372 C11.0029292,5.37280245 10.9667717,5.55717279 11.032163,5.71737619 C11.0975543,5.87757959 11.2519931,5.98204312 11.4231644,5.98204312 L12.1226587,5.98204312 L12.1226587,11.5712318 C12.1226587,11.8078339 12.3121011,12 12.5457788,12 L18.4508037,12 C18.6846736,12 18.8739237,11.8078339 18.8739237,11.5712318 L18.8739237,5.98204312 L19.5734181,5.98204312 C19.8105576,5.98204312 20,5.79007189 20,5.55327489 C19.9998077,5.4184078 19.9384553,5.2981578 19.8424839,5.21961526 Z" id="Path" fill="#5C966A" fill-rule="nonzero"></path>
        <path d="M8.84248395,5.21961526 L4.79726399,1.12059106 C4.63859397,0.959802979 4.3576038,0.959802979 4.19893378,1.12059106 L0.12390309,5.25021372 C0.0029292224,5.37280245 -0.0332283087,5.55717279 0.032162971,5.71737619 C0.0975542507,5.87757959 0.251993067,5.98204312 0.423164358,5.98204312 L1.12265872,5.98204312 L1.12265872,11.5712318 C1.12265872,11.8078339 1.31210111,12 1.54577877,12 L7.45080365,12 C7.68467364,12 7.8739237,11.8078339 7.8739237,11.5712318 L7.8739237,5.98204312 L8.57341806,5.98204312 C8.81055762,5.98204312 9,5.79007189 9,5.55327489 C8.99980767,5.4184078 8.93845527,5.2981578 8.84248395,5.21961526 Z" id="Path" fill="#5C966A" fill-rule="nonzero"></path>
        <path d="M16.0216124,10.1075303 C16.2270241,10.2756045 16.349597,10.5250662 16.35,10.7950771 C16.35,11.2935526 15.9370158,11.6907821 15.4312241,11.6907821 L14.8485649,11.6907821 L14.8485649,18.454295 C14.8485649,18.9514978 14.4368445,19.35 13.9344049,19.35 L6.06103836,19.35 C5.55879028,19.35 5.1468783,18.9514376 5.1468783,18.454295 L5.1468783,11.6907821 L4.56421914,11.6907821 C4.19715361,11.6907821 3.86386734,11.4754808 3.7210717,11.1415446 C3.57659094,10.8036677 3.65665925,10.4143259 3.92185972,10.1578008 L9.35523991,4.90191167 C9.70248124,4.56602944 10.2924491,4.56602944 10.6396845,4.90190589 L16.0216124,10.1075303 Z" id="Path" stroke="#FFFFFF" stroke-width="0.7" fill="#5C966A" fill-rule="nonzero"></path>
    </g>
</svg>