<?xml version="1.0" encoding="UTF-8"?>
<svg width="20px" height="20px" viewBox="0 0 20 20" version="1.1" xmlns="http://www.w3.org/2000/svg" xmlns:xlink="http://www.w3.org/1999/xlink">
    <!-- Generator: Sketch 57.1 (83088) - https://sketch.com -->
    <title>ico/plazas</title>
    <desc>Created with Sketch.</desc>
    <g id="ico/plazas" stroke="none" stroke-width="1" fill="none" fill-rule="evenodd">
        <path d="M6.29464917,10.2857075 C5.36607663,10.3124932 4.52678992,10.7142794 3.92857492,11.428566 L2.73214492,11.428566 C1.83928671,11.428566 1,10.999994 1,10.0089214 C1,9.28570628 0.973214254,6.85713196 2.10714418,6.85713196 C2.2946444,6.85713196 3.22321694,7.61606143 4.42857552,7.61606143 C4.83929029,7.61606143 5.2321479,7.54463278 5.61607693,7.41070405 C5.58929119,7.60713285 5.57143402,7.80356166 5.57143402,7.99999046 C5.57143402,8.81249143 5.8303629,9.61606382 6.29464917,10.2857075 Z M15.8571606,15.9732143 C15.8571606,17.4196445 14.9018023,18.285717 13.4732292,18.285717 L5.66964842,18.285717 C4.24107529,18.285717 3.28571701,17.4196445 3.28571701,15.9732143 C3.28571701,13.9553547 3.75893186,10.8571367 6.37500641,10.8571367 C6.6785782,10.8571367 7.78571701,12.0982096 9.57143879,12.0982096 C11.3571552,12.0982096 12.4642994,10.8571367 12.7678712,10.8571367 C15.3839457,10.8571367 15.8571606,13.9553547 15.8571606,15.9732143 Z M6.71429253,4.57141495 C6.71429253,5.83034502 5.68750559,6.85713196 4.42857552,6.85713196 C3.16964544,6.85713196 2.14285851,5.83034502 2.14285851,4.57141495 C2.14285851,3.31248488 3.16964544,2.28569794 4.42857552,2.28569794 C5.68750559,2.28569794 6.71429253,3.31248488 6.71429253,4.57141495 Z M13.0000143,7.99999046 C13.0000143,9.89284986 11.4642982,11.428566 9.57143879,11.428566 C7.67857939,11.428566 6.14286327,9.89284986 6.14286327,7.99999046 C6.14286327,6.10713106 7.67857939,4.57141495 9.57143879,4.57141495 C11.4642982,4.57141495 13.0000143,6.10713106 13.0000143,7.99999046 Z M18.1428776,10.0089214 C18.1428776,10.999994 17.3035909,11.428566 16.4107327,11.428566 L15.2143027,11.428566 C14.6160877,10.7142794 13.7768009,10.3124932 12.8482284,10.2857075 C13.3125147,9.61606382 13.5714436,8.81249143 13.5714436,7.99999046 C13.5714436,7.80356166 13.5535864,7.60713285 13.5268006,7.41070405 C13.9107297,7.54463278 14.3035873,7.61606143 14.7143021,7.61606143 C15.9196606,7.61606143 16.8482284,6.85713196 17.0357334,6.85713196 C18.1696633,6.85713196 18.1428776,9.28570628 18.1428776,10.0089214 Z M17.0000191,4.57141495 C17.0000191,5.83034502 15.9732321,6.85713196 14.7143021,6.85713196 C13.455372,6.85713196 12.4285851,5.83034502 12.4285851,4.57141495 C12.4285851,3.31248488 13.455372,2.28569794 14.7143021,2.28569794 C15.9732321,2.28569794 17.0000191,3.31248488 17.0000191,4.57141495 Z" id="" fill="#5C966A" fill-rule="nonzero"></path>
    </g>
</svg>