<?xml version="1.0" encoding="UTF-8"?>
<svg width="20px" height="20px" viewBox="0 0 20 20" version="1.1" xmlns="http://www.w3.org/2000/svg" xmlns:xlink="http://www.w3.org/1999/xlink">
    <!-- Generator: Sketch 57.1 (83088) - https://sketch.com -->
    <title>ico/provincia</title>
    <desc>Created with Sketch.</desc>
    <g id="ico/provincia" stroke="none" stroke-width="1" fill="none" fill-rule="evenodd">
        <path d="M12.5714388,6.99998808 C12.5714388,5.42632549 11.2879551,4.14284182 9.71429253,4.14284182 C8.14062994,4.14284182 6.85714626,5.42632549 6.85714626,6.99998808 C6.85714626,8.57365067 8.14062994,9.85713434 9.71429253,9.85713434 C11.2879551,9.85713434 12.5714388,8.57365067 12.5714388,6.99998808 Z M15.4285851,6.99998808 C15.4285851,7.68079246 15.35046,8.3839183 15.060281,8.99775832 L10.9977762,17.6361615 C10.7634009,18.1272335 10.2500075,18.4285731 9.71429253,18.4285731 C9.1785776,18.4285731 8.66518413,18.1272335 8.44196958,17.6361615 L4.36830401,8.99775832 C4.07812509,8.3839183 4,7.68079246 4,6.99998808 C4,3.84150217 6.55580662,1.28569555 9.71429253,1.28569555 C12.8727784,1.28569555 15.4285851,3.84150217 15.4285851,6.99998808 Z" id="ï" fill="#5C966A" fill-rule="nonzero"></path>
    </g>
</svg>