<?xml version="1.0" encoding="UTF-8"?>
<svg width="20px" height="20px" viewBox="0 0 20 20" version="1.1" xmlns="http://www.w3.org/2000/svg" xmlns:xlink="http://www.w3.org/1999/xlink">
    <!-- Generator: Sketch 57.1 (83088) - https://sketch.com -->
    <title>ico/restauracion</title>
    <desc>Created with Sketch.</desc>
    <g id="ico/restauracion" stroke="none" stroke-width="1" fill="none" fill-rule="evenodd">
        <path d="M8.99615385,0.631578947 C9.02692308,0.814814815 9.61538462,4.31578947 9.61538462,5.65302144 C9.61538462,7.6920078 8.54615385,9.14619883 6.96538462,9.73099415 L7.46153846,19.0136452 C7.48846154,19.5477583 7.06923077,20 6.53846154,20 L4.07692308,20 C3.55,20 3.12692308,19.5516569 3.15384615,19.0136452 L3.65,9.73099415 C2.06538462,9.14619883 1,7.68810916 1,5.65302144 C1,4.31189084 1.58846154,0.814814815 1.61923077,0.631578947 C1.74230769,-0.159844055 3.36153846,-0.171539961 3.46153846,0.674463938 L3.46153846,6.17933723 C3.51153846,6.31189084 4.04230769,6.30409357 4.07692308,6.17933723 C4.13076923,5.19298246 4.38076923,0.752436647 4.38461538,0.651072125 C4.51153846,-0.159844055 6.10384615,-0.159844055 6.22692308,0.651072125 C6.23461538,0.756335283 6.48076923,5.19298246 6.53461538,6.17933723 C6.56923077,6.30409357 7.10384615,6.31189084 7.15,6.17933723 L7.15,0.674463938 C7.25,-0.167641326 8.87307692,-0.159844055 8.99615385,0.631578947 Z M13.5807692,11.7699805 L13.0038462,18.9863548 C12.9576923,19.5321637 13.3846154,20 13.9230769,20 L16.0769231,20 C16.5884615,20 17,19.582846 17,19.0643275 L17,0.974658869 C17,0.460038986 16.5884615,0.0389863548 16.0769231,0.0389863548 C12.9038462,0.0389863548 7.56153846,6.99805068 13.5807692,11.7699805 Z" id="Shape" fill="#5C966A" fill-rule="nonzero"></path>
    </g>
</svg>