<?xml version="1.0" encoding="UTF-8"?>
<svg width="20px" height="20px" viewBox="0 0 20 20" version="1.1" xmlns="http://www.w3.org/2000/svg" xmlns:xlink="http://www.w3.org/1999/xlink">
    <!-- Generator: Sketch 57.1 (83088) - https://sketch.com -->
    <title>ico/sombra</title>
    <desc>Created with Sketch.</desc>
    <defs>
        <rect id="path-1" x="0" y="0" width="20" height="20"></rect>
    </defs>
    <g id="ico/sombra" stroke="none" stroke-width="1" fill="none" fill-rule="evenodd">
        <mask id="mask-2" fill="white">
            <use xlink:href="#path-1"></use>
        </mask>
        <g id="Mask"></g>
        <g id="Group-13" mask="url(#mask-2)" fill="#5C966A">
            <g transform="translate(0.000000, 3.000000)" id="Combined-Shape">
                <path d="M13.2728421,11.0539475 C16.5789846,10.8300368 19.3076933,11.3235398 19.3675844,12.1562171 C19.4274739,12.9888945 16.7958666,13.8454283 13.4897241,14.069339 C10.5638316,14.267497 8.09018616,13.9037754 7.51837446,13.2403407 L5,13.5342621 L5,12.897606 L7.56096632,12.5723426 C8.18538167,11.8790056 10.4901944,11.2424041 13.2728421,11.0539475 Z"></path>
                <path d="M4.50819672,0 C5.92135974,0 7.08141274,1.05167464 7.20265337,2.39253553 L7.21536818,2.3914396 L7.37704918,2.38636364 C8.73512643,2.38636364 9.83606557,3.45477503 9.83606557,4.77272727 C9.83606557,5.48372169 9.51566275,6.12209302 9.00733382,6.55927862 L9.00457549,6.60386067 C9.50295001,6.89650137 9.83606557,7.42754385 9.83606557,8.03409091 C9.83606557,8.95665748 9.06540818,9.70454545 8.1147541,9.70454545 C7.83837346,9.70454545 7.57720652,9.64133241 7.34576749,9.52899169 C6.81591417,9.91567123 6.18628982,10.1835594 5.5010886,10.2898569 L5.5,13.25 C5.5,13.6642136 5.16421356,14 4.75,14 C4.33578644,14 4,13.6642136 4,13.25 L4.0002413,10.2598056 C3.26630946,10.1152709 2.60219152,9.78413897 2.06275428,9.31965563 C0.854129837,8.85092981 0,7.70408239 0,6.36363636 C0,5.59162187 0.283319283,4.88382504 0.754559708,4.33282542 C0.690698201,4.17409927 0.655737705,4.00010265 0.655737705,3.81818182 C0.655737705,3.13363349 1.15075565,2.56128682 1.81235545,2.41987411 C1.91821094,1.06694472 3.08481127,0 4.50819672,0 Z"></path>
            </g>
        </g>
    </g>
</svg>