<?xml version="1.0" encoding="UTF-8"?>
<svg width="20px" height="20px" viewBox="0 0 20 20" version="1.1" xmlns="http://www.w3.org/2000/svg" xmlns:xlink="http://www.w3.org/1999/xlink">
    <!-- Generator: Sketch 57.1 (83088) - https://sketch.com -->
    <title>ico/superficie</title>
    <desc>Created with Sketch.</desc>
    <g id="ico/superficie" stroke="none" stroke-width="1" fill="none" fill-rule="evenodd">
        <path d="M15.3192135,5.89507605 L11.3571552,9.85713434 L15.3192135,13.8191926 L16.9263583,12.2120479 C17.1272514,11.999994 17.4397517,11.9441904 17.7076092,12.0557977 C17.9643059,12.167405 18.1428776,12.4241017 18.1428776,12.7142806 L18.1428776,17.7142866 C18.1428776,18.104912 17.8192165,18.4285731 17.428591,18.4285731 L12.4285851,18.4285731 C12.1384061,18.4285731 11.8817094,18.2500015 11.7701021,17.982144 C11.6584948,17.7254473 11.7142985,17.4129469 11.9263523,17.2120538 L13.5334971,15.6049091 L9.57143879,11.6428508 L5.60938049,15.6049091 L7.21652527,17.2120538 C7.42857909,17.4129469 7.48438273,17.7254473 7.37277545,17.982144 C7.26116818,18.2500015 7.00447144,18.4285731 6.71429253,18.4285731 L1.71428657,18.4285731 C1.3236611,18.4285731 1,18.104912 1,17.7142866 L1,12.7142806 C1,12.4241017 1.17857164,12.167405 1.4464291,12.0557977 C1.70312584,11.9441904 2.01562621,11.999994 2.21651931,12.2120479 L3.82366408,13.8191926 L7.78572237,9.85713434 L3.82366408,5.89507605 L2.21651931,7.50222082 C2.08259058,7.63614955 1.90401893,7.71427464 1.71428657,7.71427464 C1.62500075,7.71427464 1.5245542,7.69195319 1.4464291,7.65847101 C1.17857164,7.54686373 1,7.290167 1,6.99998808 L1,1.99998212 C1,1.60935665 1.3236611,1.28569555 1.71428657,1.28569555 L6.71429253,1.28569555 C7.00447144,1.28569555 7.26116818,1.46426719 7.37277545,1.73212466 C7.48438273,1.98882139 7.42857909,2.30132176 7.21652527,2.50221486 L5.60938049,4.10935963 L9.57143879,8.07141793 L13.5334971,4.10935963 L11.9263523,2.50221486 C11.7142985,2.30132176 11.6584948,1.98882139 11.7701021,1.73212466 C11.8817094,1.46426719 12.1384061,1.28569555 12.4285851,1.28569555 L17.428591,1.28569555 C17.8192165,1.28569555 18.1428776,1.60935665 18.1428776,1.99998212 L18.1428776,6.99998808 C18.1428776,7.290167 17.9643059,7.54686373 17.7076092,7.65847101 C17.6183234,7.69195319 17.5178768,7.71427464 17.428591,7.71427464 C17.2388586,7.71427464 17.060287,7.63614955 16.9263583,7.50222082 L15.3192135,5.89507605 Z" id="" fill="#5C966A" fill-rule="nonzero"></path>
    </g>
</svg>