<?xml version="1.0" encoding="UTF-8"?>
<svg width="20px" height="20px" viewBox="0 0 20 20" version="1.1" xmlns="http://www.w3.org/2000/svg" xmlns:xlink="http://www.w3.org/1999/xlink">
    <!-- Generator: Sketch 57.1 (83088) - https://sketch.com -->
    <title>ico/telefono</title>
    <desc>Created with Sketch.</desc>
    <g id="ico/telefono" stroke="none" stroke-width="1" fill="none" fill-rule="evenodd">
        <path d="M18.5000197,14.5312459 C18.5000197,14.9531214 18.3125194,15.7734348 18.136738,16.1601541 C17.8906439,16.7343735 17.2343932,17.1093739 16.7070488,17.402343 C16.0156417,17.7773435 15.3125159,18 14.5273587,18 C13.4375136,18 12.4531375,17.554687 11.4570425,17.1914053 C10.7421979,16.9335925 10.0507908,16.6171859 9.40625883,16.2187479 C7.41406895,14.9882777 5.01172234,12.585931 3.78125212,10.5937412 C3.38281415,9.94920915 3.06640752,9.25780208 2.80859471,8.54295748 C2.44531303,7.54686254 2,6.56248637 2,5.47264132 C2,4.68748413 2.22265652,3.98435829 2.59765696,3.29295122 C2.89062606,2.76560684 3.26562651,2.10935606 3.83984594,1.86326201 C4.22656515,1.68748055 5.04687863,1.49998033 5.46875414,1.49998033 C5.55078548,1.49998033 5.63281683,1.49998033 5.71484818,1.53513662 C5.96094222,1.61716797 6.21875503,2.1913874 6.33594267,2.42576268 C6.71094312,3.09373223 7.0742248,3.77342054 7.46094401,4.42967132 C7.64844423,4.73435919 8,5.10935963 8,5.47264132 C8,6.18748592 5.87891087,7.23045591 5.87891087,7.86326917 C5.87891087,8.17967579 6.17187997,8.58983253 6.33594267,8.87108287 C7.51953783,11.0038979 8.99610209,12.4804622 11.1289171,13.6640573 C11.4101675,13.82812 11.8203242,14.1210891 12.1367308,14.1210891 C12.7695441,14.1210891 13.8125141,11.9999928 14.5273587,11.9999928 C14.8906404,11.9999928 15.2656408,12.3515558 15.5703287,12.539056 C16.2265795,12.9257752 16.9062678,13.2890569 17.5742373,13.6640573 C17.8086126,13.781245 18.382832,14.0390578 18.4648634,14.2851518 C18.5000197,14.3671832 18.5000197,14.4492145 18.5000197,14.5312459 Z" id="" fill="#5C966A" fill-rule="nonzero"></path>
    </g>
</svg>