<?xml version="1.0" encoding="UTF-8"?>
<svg width="20px" height="20px" viewBox="0 0 20 20" version="1.1" xmlns="http://www.w3.org/2000/svg" xmlns:xlink="http://www.w3.org/1999/xlink">
    <!-- Generator: Sketch 57.1 (83088) - https://sketch.com -->
    <title>ico/web</title>
    <desc>Created with Sketch.</desc>
    <g id="ico/web" stroke="none" stroke-width="1" fill="none" fill-rule="evenodd">
        <path d="M9.198,19.738 C7.72799265,19.738 6.37000623,19.440503 5.124,18.8455 C3.87799377,18.250497 2.88050375,17.3475061 2.1315,16.1365 C1.38249625,14.9254939 1.008,13.4380088 1.008,11.674 C1.008,9.74199034 1.44549562,8.02350752 2.3205,6.5185 C3.19550437,5.01349247 4.37499258,3.84450417 5.859,3.0115 C7.34300742,2.17849583 8.97399111,1.762 10.752,1.762 C12.2780076,1.762 13.6184942,2.08749674 14.7735,2.7385 C15.9285058,3.38950325 16.8209969,4.29599419 17.451,5.458 C18.0810032,6.62000581 18.396,7.94999251 18.396,9.448 C18.396,10.6800062 18.1510025,11.7369956 17.661,12.619 C17.1709976,13.5010044 16.5410039,14.1659978 15.771,14.614 C15.0009961,15.0620022 14.2100041,15.286 13.398,15.286 C12.7679968,15.286 12.2220023,15.1425014 11.76,14.8555 C11.2979977,14.5684986 11.0040006,14.1800024 10.878,13.69 L10.836,13.69 C10.5699987,14.096002 10.1920025,14.4284987 9.702,14.6875 C9.21199755,14.9465013 8.75000217,15.076 8.316,15.076 C7.46199573,15.076 6.77250263,14.778503 6.2475,14.1835 C5.72249738,13.588497 5.46,12.8080048 5.46,11.842 C5.46,10.9599956 5.65599804,10.1130041 6.048,9.301 C6.44000196,8.48899594 6.96849668,7.83450248 7.6335,7.3375 C8.29850333,6.84049751 9.01599615,6.592 9.786,6.592 C10.5140036,6.592 11.0319985,6.9419965 11.34,7.642 L11.382,7.642 L11.718,6.76 L13.902,6.76 L12.894,11.548 C12.8379997,11.7720011 12.81,11.981999 12.81,12.178 C12.81,12.7940031 13.1319968,13.102 13.776,13.102 C14.1960021,13.102 14.5914981,12.9515015 14.9625,12.6505 C15.3335019,12.3494985 15.6274989,11.9260027 15.8445,11.38 C16.0615011,10.8339973 16.17,10.2180034 16.17,9.532 C16.17,8.50999489 15.9810019,7.57550423 15.603,6.7285 C15.2249981,5.88149577 14.6090043,5.19900259 13.755,4.681 C12.9009957,4.16299741 11.8020067,3.904 10.458,3.904 C9.26799405,3.904 8.13050543,4.22599678 7.0455,4.87 C5.96049458,5.51400322 5.08200336,6.42049415 4.41,7.5895 C3.73799664,8.75850585 3.402,10.0919925 3.402,11.59 C3.402,12.9200066 3.6819972,14.0364955 4.242,14.9395 C4.8020028,15.8425045 5.54399538,16.5109978 6.468,16.945 C7.39200462,17.3790022 8.39999454,17.596 9.492,17.596 C9.98200245,17.596 10.5139971,17.5260007 11.088,17.386 C11.6620029,17.2459993 12.1659978,17.0640011 12.6,16.84 L13.356,18.772 C12.1099938,19.4160032 10.7240076,19.738 9.198,19.738 Z M9.114,12.85 C9.31000098,12.85 9.49899909,12.7870006 9.681,12.661 C9.86300091,12.5349994 10.0659989,12.3180015 10.29,12.01 L10.752,9.364 C10.6819996,9.20999923 10.5700008,9.08750046 10.416,8.9965 C10.2619992,8.90549955 10.0940009,8.86 9.912,8.86 C9.57599832,8.86 9.27150136,9.00699853 8.9985,9.301 C8.72549864,9.59500147 8.51550073,9.95899783 8.3685,10.393 C8.22149927,10.8270022 8.148,11.239998 8.148,11.632 C8.148,12.024002 8.23199916,12.324999 8.4,12.535 C8.56800084,12.745001 8.80599846,12.85 9.114,12.85 Z" id="@" fill="#5C966A" fill-rule="nonzero"></path>
    </g>
</svg>