<?xml version="1.0" encoding="UTF-8"?>
<svg width="16px" height="18px" viewBox="0 0 16 18" version="1.1" xmlns="http://www.w3.org/2000/svg" xmlns:xlink="http://www.w3.org/1999/xlink">
    <!-- Generator: Sketch 60.1 (88133) - https://sketch.com -->
    <title>ico_detele_white</title>
    <desc>Created with Sketch.</desc>
    <g id="6.-Espacio-personal" stroke="none" stroke-width="1" fill="none" fill-rule="evenodd">
        <g id="6.4-visitas-detalle" transform="translate(-382.000000, -784.000000)" fill="#FFFFFF" fill-rule="nonzero">
            <path d="M387.714293,798.214284 L387.714293,790.357131 C387.714293,790.156238 387.558042,789.999988 387.357149,789.999988 L386.642863,789.999988 C386.44197,789.999988 386.285719,790.156238 386.285719,790.357131 L386.285719,798.214284 C386.285719,798.415177 386.44197,798.571427 386.642863,798.571427 L387.357149,798.571427 C387.558042,798.571427 387.714293,798.415177 387.714293,798.214284 Z M390.571439,798.214284 L390.571439,790.357131 C390.571439,790.156238 390.415189,789.999988 390.214296,789.999988 L389.500009,789.999988 C389.299116,789.999988 389.142866,790.156238 389.142866,790.357131 L389.142866,798.214284 C389.142866,798.415177 389.299116,798.571427 389.500009,798.571427 L390.214296,798.571427 C390.415189,798.571427 390.571439,798.415177 390.571439,798.214284 Z M393.428585,798.214284 L393.428585,790.357131 C393.428585,790.156238 393.272335,789.999988 393.071442,789.999988 L392.357155,789.999988 C392.156262,789.999988 392.000012,790.156238 392.000012,790.357131 L392.000012,798.214284 C392.000012,798.415177 392.156262,798.571427 392.357155,798.571427 L393.071442,798.571427 C393.272335,798.571427 393.428585,798.415177 393.428585,798.214284 Z M387.357149,787.142842 L392.357149,787.142842 L391.82144,785.837037 C391.787958,785.792394 391.687512,785.725429 391.631708,785.714269 L388.093757,785.714269 C388.026793,785.725429 387.937507,785.792394 387.904025,785.837037 L387.357149,787.142842 Z M397.714304,787.499985 L397.714304,788.214272 C397.714304,788.415165 397.558054,788.571415 397.357161,788.571415 L396.285731,788.571415 L396.285731,799.151785 C396.285731,800.379465 395.482159,801.428573 394.500015,801.428573 L385.21429,801.428573 C384.232146,801.428573 383.428573,800.424108 383.428573,799.196428 L383.428573,788.571415 L382.357143,788.571415 C382.15625,788.571415 382,788.415165 382,788.214272 L382,787.499985 C382,787.299092 382.15625,787.142842 382.357143,787.142842 L385.805808,787.142842 L386.587059,785.279 C386.810274,784.732125 387.479917,784.285696 388.071436,784.285696 L391.642869,784.285696 C392.234387,784.285696 392.904031,784.732125 393.127245,785.279 L393.908496,787.142842 L397.357161,787.142842 C397.558054,787.142842 397.714304,787.299092 397.714304,787.499985 Z" id="ico_detele_white"></path>
        </g>
    </g>
</svg>