<?xml version="1.0" encoding="UTF-8"?>
<svg width="32px" height="32px" viewBox="0 0 32 32" version="1.1" xmlns="http://www.w3.org/2000/svg" xmlns:xlink="http://www.w3.org/1999/xlink">
    <!-- Generator: Sketch 60.1 (88133) - https://sketch.com -->
    <title>Group 7</title>
    <desc>Created with Sketch.</desc>
    <g id="6.-Espacio-personal" stroke="none" stroke-width="1" fill="none" fill-rule="evenodd">
        <g id="6.1-pasaporte" transform="translate(-1273.000000, -950.000000)">
            <g id="Group-7" transform="translate(1273.000000, 950.000000)">
                <circle id="Oval" fill="#C4DDCA" cx="16" cy="16" r="16"></circle>
                <path d="M20.5000149,24.4285731 C21.4821589,24.4285731 22.2857313,23.3794647 22.2857313,22.1517847 L22.2857313,11.5714149 L23.3571612,11.5714149 C23.5580543,11.5714149 23.7143044,11.4151648 23.7143044,11.2142717 L23.7143044,10.4999851 C23.7143044,10.299092 23.5580543,10.1428418 23.3571612,10.1428418 L19.9084963,10.1428418 L19.1272454,8.27900031 C18.9040309,7.73212466 18.2343872,7.28569555 17.6428686,7.28569555 L14.0714358,7.28569555 C13.4799172,7.28569555 12.8102736,7.73212466 12.587059,8.27900031 L11.8058081,10.1428418 L8.35714328,10.1428418 C8.15625019,10.1428418 8,10.299092 8,10.4999851 L8,11.2142717 C8,11.4151648 8.15625019,11.5714149 8.35714328,11.5714149 L9.42857313,11.5714149 L9.42857313,22.1964276 C9.42857313,23.4241076 10.2321455,24.4285731 11.2142895,24.4285731 L20.5000149,24.4285731 Z M18.3571492,10.1428418 L13.3571492,10.1428418 L13.9040249,8.83703669 C13.9375071,8.79239378 14.0267929,8.72542941 14.0937573,8.71426868 L17.6317079,8.71426868 C17.6875115,8.72542941 17.7879581,8.79239378 17.8214403,8.83703669 L18.3571492,10.1428418 Z M13.3571492,21.5714269 L12.6428627,21.5714269 C12.4419696,21.5714269 12.2857194,21.4151767 12.2857194,21.2142836 L12.2857194,13.3571314 C12.2857194,13.1562383 12.4419696,12.9999881 12.6428627,12.9999881 L13.3571492,12.9999881 C13.5580423,12.9999881 13.7142925,13.1562383 13.7142925,13.3571314 L13.7142925,21.2142836 C13.7142925,21.4151767 13.5580423,21.5714269 13.3571492,21.5714269 Z M16.2142955,21.5714269 L15.5000089,21.5714269 C15.2991158,21.5714269 15.1428657,21.4151767 15.1428657,21.2142836 L15.1428657,13.3571314 C15.1428657,13.1562383 15.2991158,12.9999881 15.5000089,12.9999881 L16.2142955,12.9999881 C16.4151886,12.9999881 16.5714388,13.1562383 16.5714388,13.3571314 L16.5714388,21.2142836 C16.5714388,21.4151767 16.4151886,21.5714269 16.2142955,21.5714269 Z M19.0714418,21.5714269 L18.3571552,21.5714269 C18.1562621,21.5714269 18.0000119,21.4151767 18.0000119,21.2142836 L18.0000119,13.3571314 C18.0000119,13.1562383 18.1562621,12.9999881 18.3571552,12.9999881 L19.0714418,12.9999881 C19.2723349,12.9999881 19.4285851,13.1562383 19.4285851,13.3571314 L19.4285851,21.2142836 C19.4285851,21.4151767 19.2723349,21.5714269 19.0714418,21.5714269 Z" id="" fill="#087021" fill-rule="nonzero"></path>
            </g>
        </g>
    </g>
</svg>