<?xml version="1.0" encoding="UTF-8"?>
<svg width="20px" height="21px" viewBox="0 0 20 21" version="1.1" xmlns="http://www.w3.org/2000/svg" xmlns:xlink="http://www.w3.org/1999/xlink">
    <!-- Generator: Sketch 57.1 (83088) - https://sketch.com -->
    <title></title>
    <desc>Created with Sketch.</desc>
    <g id="6.-Espacio-personal" stroke="none" stroke-width="1" fill="none" fill-rule="evenodd">
        <g id="6.0-espacio-personal" transform="translate(-1250.000000, -246.000000)" fill="#087021" fill-rule="nonzero">
            <g id="perfil" transform="translate(135.000000, 220.000000)">
                <path d="M1128.14287,36.7857045 C1128.14287,34.9759925 1126.66687,33.4999863 1124.85715,33.4999863 C1123.04744,33.4999863 1121.57144,34.9759925 1121.57144,36.7857045 C1121.57144,38.5954165 1123.04744,40.0714227 1124.85715,40.0714227 C1126.66687,40.0714227 1128.14287,38.5954165 1128.14287,36.7857045 Z M1134.71431,35.3867073 L1134.71431,38.236041 C1134.71431,38.4285636 1134.56029,38.6595907 1134.35493,38.6980952 L1131.98049,39.0574706 C1131.83931,39.4681854 1131.68529,39.8532305 1131.47993,40.2254407 C1131.91631,40.8543477 1132.37837,41.4190806 1132.85326,41.9966482 C1132.93027,42.0864921 1132.98161,42.2020056 1132.98161,42.3175191 C1132.98161,42.4330327 1132.9431,42.5228765 1132.86609,42.6127204 C1132.55806,43.0234351 1130.82535,44.9101561 1130.38897,44.9101561 C1130.27346,44.9101561 1130.15794,44.8588168 1130.05526,44.7946426 L1128.28406,43.4084802 C1127.91185,43.6010028 1127.51397,43.7678557 1127.11609,43.896204 C1127.02624,44.6791291 1126.94923,45.5133935 1126.74388,46.2834837 C1126.69254,46.4888411 1126.51285,46.6428591 1126.28182,46.6428591 L1123.43249,46.6428591 C1123.20146,46.6428591 1122.9961,46.4760062 1122.97043,46.257814 L1122.61106,43.896204 C1122.21318,43.7678557 1121.82813,43.6138376 1121.45592,43.4213151 L1119.64621,44.7946426 C1119.55637,44.8716516 1119.44085,44.9101561 1119.32534,44.9101561 C1119.20983,44.9101561 1119.09431,44.8588168 1119.00447,44.7689729 C1118.32422,44.1529008 1117.42578,43.3571409 1116.88672,42.6127204 C1116.82255,42.5228765 1116.79688,42.4201978 1116.79688,42.3175191 C1116.79688,42.2020056 1116.83538,42.1121617 1116.89956,42.0223179 C1117.33594,41.4319154 1117.81083,40.8671826 1118.24721,40.2639452 C1118.02902,39.8532305 1117.84933,39.4296809 1117.72099,38.9932964 L1115.37221,38.6467558 C1115.15402,38.6082513 1115,38.4028939 1115,38.1847017 L1115,35.3353679 C1115,35.1428454 1115.15402,34.9118183 1115.34654,34.8733138 L1117.73382,34.5139384 C1117.86217,34.1032236 1118.02902,33.7181785 1118.23438,33.3331334 C1117.79799,32.7170613 1117.33594,32.1394936 1116.86105,31.5619259 C1116.78404,31.4720821 1116.7327,31.3694034 1116.7327,31.2538899 C1116.7327,31.1383763 1116.78404,31.0485325 1116.84822,30.9586886 C1117.15625,30.535139 1118.88896,28.6612528 1119.32534,28.6612528 C1119.44085,28.6612528 1119.55637,28.7125922 1119.65905,28.7896012 L1121.43025,30.1629287 C1121.80246,29.9704062 1122.20034,29.8035533 1122.59822,29.6752049 C1122.68807,28.8922799 1122.76508,28.0580155 1122.97043,27.2879253 C1123.02177,27.0825679 1123.20146,26.9285499 1123.43249,26.9285499 L1126.28182,26.9285499 C1126.51285,26.9285499 1126.71821,27.0954028 1126.74388,27.313595 L1127.10325,29.6752049 C1127.50113,29.8035533 1127.88618,29.9575714 1128.25839,30.1500939 L1130.08093,28.7767664 C1130.15794,28.6997574 1130.27346,28.6612528 1130.38897,28.6612528 C1130.50448,28.6612528 1130.62,28.7125922 1130.70984,28.7896012 C1131.39009,29.4185082 1132.28853,30.2142681 1132.82759,30.9715235 C1132.89176,31.0485325 1132.91743,31.1512112 1132.91743,31.2538899 C1132.91743,31.3694034 1132.87893,31.4592473 1132.81475,31.5490911 C1132.37837,32.1394936 1131.90348,32.7042264 1131.4671,33.3074637 C1131.68529,33.7181785 1131.86498,34.1417281 1131.99332,34.5652777 L1134.3421,34.9246532 C1134.56029,34.9631577 1134.71431,35.1685151 1134.71431,35.3867073 Z" id=""></path>
            </g>
        </g>
    </g>
</svg>