<?xml version="1.0" encoding="UTF-8"?>
<svg width="32px" height="32px" viewBox="0 0 32 32" version="1.1" xmlns="http://www.w3.org/2000/svg" xmlns:xlink="http://www.w3.org/1999/xlink">
    <!-- Generator: Sketch 57.1 (83088) - https://sketch.com -->
    <title>Group 8</title>
    <desc>Created with Sketch.</desc>
    <g id="6.-Espacio-personal" stroke="none" stroke-width="1" fill="none" fill-rule="evenodd">
        <g id="6.2-visitas" transform="translate(-1183.000000, -919.000000)">
            <g id="Group-8" transform="translate(1183.000000, 919.000000)">
                <circle id="Oval" fill="#C4DDCA" cx="16" cy="16" r="16"></circle>
                <g id="Group-6" transform="translate(3.000000, 6.000000)" fill="#087021">
                    <text id="user---FontAwesome" font-family="FontAwesome" font-size="20" font-weight="normal">
                        <tspan x="3.85714286" y="17"></tspan>
                    </text>
                    <path d="M26,11.6502836 C26,11.7863894 25.8984375,11.9149338 25.796875,12.0132325 L22.9609375,14.6899811 L23.6328125,18.4706994 C23.640625,18.5236295 23.640625,18.5689981 23.640625,18.6219282 C23.640625,18.8185255 23.546875,19 23.3203125,19 C23.2109375,19 23.1015625,18.9621928 23.0078125,18.9092628 L19.5,17.1247637 L15.9921875,18.9092628 C15.890625,18.9621928 15.7890625,19 15.6796875,19 C15.453125,19 15.3515625,18.8185255 15.3515625,18.6219282 C15.3515625,18.5689981 15.359375,18.5236295 15.3671875,18.4706994 L16.0390625,14.6899811 L13.1953125,12.0132325 C13.1015625,11.9149338 13,11.7863894 13,11.6502836 C13,11.4234405 13.2421875,11.3327032 13.4375,11.3024575 L17.359375,10.7504726 L19.1171875,7.3100189 C19.1875,7.16635161 19.3203125,7 19.5,7 C19.6796875,7 19.8125,7.16635161 19.8828125,7.3100189 L21.640625,10.7504726 L25.5625,11.3024575 C25.75,11.3327032 26,11.4234405 26,11.6502836 Z" id="" stroke="#C4DDCA" stroke-width="0.8" fill-rule="nonzero"></path>
                </g>
            </g>
        </g>
    </g>
</svg>