<?xml version="1.0" encoding="UTF-8"?>
<svg width="66px" height="66px" viewBox="0 0 66 66" version="1.1" xmlns="http://www.w3.org/2000/svg" xmlns:xlink="http://www.w3.org/1999/xlink">
    <!-- Generator: Sketch 60.1 (88133) - https://sketch.com -->
    <title>ico_photo</title>
    <desc>Created with Sketch.</desc>
    <g id="6.-Espacio-personal" stroke="none" stroke-width="1" fill="none" fill-rule="evenodd">
        <g id="6.4-formulario---error-v2" transform="translate(-735.000000, -542.000000)">
            <g id="ico_photo" transform="translate(735.000000, 542.000000)">
                <circle id="Oval" stroke="#CACACA" cx="33" cy="33" r="32.5"></circle>
                <path d="M25.225,30.125 L25.225,27 L28.35,27 L28.35,24.9 L25.225,24.9 L25.225,21.775 L23.125,21.775 L23.125,24.9 L20,24.9 L20,27 L23.125,27 L23.125,30.125 L25.225,30.125 Z M41.875,43.65 C42.4416667,43.65 42.9333333,43.45 43.35,43.05 C43.7666667,42.65 43.975,42.1666667 43.975,41.6 L43.975,41.6 L43.975,29.1 C43.975,28.5333333 43.7666667,28.0416667 43.35,27.625 C42.9333333,27.2083333 42.4416667,27 41.875,27 L41.875,27 L38.55,27 L36.65,24.9 L29.375,24.9 L29.375,28.025 L26.25,28.025 L26.25,31.15 L23.125,31.15 L23.125,41.6 C23.125,42.1666667 23.3333333,42.65 23.75,43.05 C24.1666667,43.45 24.6583333,43.65 25.225,43.65 L25.225,43.65 L41.875,43.65 Z M33.525,40.525 C32.575,40.525 31.7041667,40.2958333 30.9125,39.8375 C30.1208333,39.3791667 29.4958333,38.7541667 29.0375,37.9625 C28.5791667,37.1708333 28.35,36.3 28.35,35.35 C28.35,34.4 28.5791667,33.525 29.0375,32.725 C29.4958333,31.925 30.125,31.2916667 30.925,30.825 C31.725,30.3583333 32.5958333,30.125 33.5375,30.125 C34.4791667,30.125 35.35,30.3583333 36.15,30.825 C36.95,31.2916667 37.5833333,31.925 38.05,32.725 C38.5166667,33.525 38.75,34.3958333 38.75,35.3375 C38.75,36.2791667 38.5166667,37.15 38.05,37.95 C37.5833333,38.75 36.95,39.3791667 36.15,39.8375 C35.35,40.2958333 34.475,40.525 33.525,40.525 Z M33.525,38.675 C34.125,38.675 34.6875,38.525 35.2125,38.225 C35.7375,37.925 36.15,37.5208333 36.45,37.0125 C36.75,36.5041667 36.9,35.95 36.9,35.35 C36.9,34.75 36.7458333,34.1916667 36.4375,33.675 C36.1291667,33.1583333 35.7166667,32.7458333 35.2,32.4375 C34.6833333,32.1291667 34.125,31.975 33.525,31.975 C32.925,31.975 32.3708333,32.125 31.8625,32.425 C31.3541667,32.725 30.95,33.1375 30.65,33.6625 C30.35,34.1875 30.2,34.75 30.2,35.35 C30.2,35.95 30.35,36.5041667 30.65,37.0125 C30.95,37.5208333 31.3541667,37.925 31.8625,38.225 C32.3708333,38.525 32.925,38.675 33.525,38.675 Z" id="î " fill="#087021" fill-rule="nonzero"></path>
            </g>
        </g>
    </g>
</svg>