<?xml version="1.0" encoding="UTF-8"?>
<svg width="32px" height="32px" viewBox="0 0 32 32" version="1.1" xmlns="http://www.w3.org/2000/svg" xmlns:xlink="http://www.w3.org/1999/xlink">
    <!-- Generator: Sketch 60.1 (88133) - https://sketch.com -->
    <title>ico_user</title>
    <desc>Created with Sketch.</desc>
    <g id="6.-Espacio-personal" stroke="none" stroke-width="1" fill="none" fill-rule="evenodd">
        <g id="6.2-visitas" transform="translate(-1230.000000, -462.000000)">
            <g id="Group-7" transform="translate(135.000000, 462.000000)">
                <g id="ico_user" transform="translate(1095.000000, 0.000000)">
                    <circle id="Oval" fill="#C4DDCA" cx="16" cy="16" r="16"></circle>
                    <path d="M16.1428657,15.8571343 C18.5089399,15.8571343 20.4285851,13.9374892 20.4285851,11.5714149 C20.4285851,9.2053407 18.5089399,7.28569555 16.1428657,7.28569555 C13.7767914,7.28569555 11.8571463,9.2053407 11.8571463,11.5714149 C11.8571463,13.9374892 13.7767914,15.8571343 16.1428657,15.8571343 Z M20.9084963,24.4285731 C22.2143015,24.4285731 23.2857313,23.1004465 23.2857313,21.4709803 C23.2857313,18.535709 22.560284,15.1428478 19.6361734,15.1428478 C18.7321545,16.0245453 17.5044744,16.5714209 16.1428657,16.5714209 C14.7812569,16.5714209 13.5535769,16.0245453 12.6495579,15.1428478 C9.72544729,15.1428478 9,18.535709 9,21.4709803 C9,23.1004465 10.0714298,24.4285731 11.377235,24.4285731 L20.9084963,24.4285731 Z" id="" fill="#087021" fill-rule="nonzero"></path>
                </g>
            </g>
        </g>
    </g>
</svg>