<?xml version="1.0" encoding="UTF-8"?>
<svg width="13px" height="14px" viewBox="0 0 13 14" version="1.1" xmlns="http://www.w3.org/2000/svg" xmlns:xlink="http://www.w3.org/1999/xlink">
    <!-- Generator: Sketch 57.1 (83088) - https://sketch.com -->
    <title></title>
    <desc>Created with Sketch.</desc>
    <g id="6.-Espacio-personal" stroke="none" stroke-width="1" fill="none" fill-rule="evenodd">
        <g id="6.2-visitas" transform="translate(-1277.000000, -471.000000)" fill="#087021" fill-rule="nonzero">
            <path d="M1280.03851,483 L1280.80023,482.23828 L1278.83315,480.271202 L1278.07143,481.032922 L1278.07143,481.92857 L1279.14286,481.92857 L1279.14286,483 L1280.03851,483 Z M1284.4163,475.232134 C1284.4163,475.123317 1284.34097,475.047982 1284.23215,475.047982 C1284.18193,475.047982 1284.1317,475.064723 1284.08985,475.106575 L1279.55302,479.643411 C1279.51116,479.685264 1279.49442,479.735487 1279.49442,479.78571 C1279.49442,479.894528 1279.56976,479.969862 1279.67857,479.969862 C1279.7288,479.969862 1279.77902,479.953121 1279.82087,479.911269 L1284.35771,475.374433 C1284.39956,475.33258 1284.4163,475.282357 1284.4163,475.232134 Z M1283.96429,473.624989 L1287.44644,477.107136 L1280.48215,484.07143 L1277,484.07143 L1277,480.589283 L1283.96429,473.624989 Z M1289.68138,474.428561 C1289.68138,474.71316 1289.56419,474.989388 1289.37167,475.18191 L1287.98216,476.571421 L1284.50001,473.089274 L1285.88952,471.708134 C1286.08204,471.507241 1286.35827,471.390053 1286.64287,471.390053 C1286.92747,471.390053 1287.2037,471.507241 1287.40459,471.708134 L1289.37167,473.666842 C1289.56419,473.867735 1289.68138,474.143963 1289.68138,474.428561 Z" id=""></path>
        </g>
    </g>
</svg>