<svg xmlns="http://www.w3.org/2000/svg" width="17" height="17" viewBox="0 0 17 17"><g transform="translate(-91 -1174)"><g transform="translate(91 1174)" fill="#fff"><path d="M 8.5 16.25 C 4.226640224456787 16.25 0.75 12.77336025238037 0.75 8.5 C 0.75 4.226640224456787 4.226640224456787 0.75 8.5 0.75 C 12.77336025238037 0.75 16.25 4.226640224456787 16.25 8.5 C 16.25 12.77336025238037 12.77336025238037 16.25 8.5 16.25 Z" stroke="none"/><path d="M 8.5 1.5 C 4.640190124511719 1.5 1.5 4.640190124511719 1.5 8.5 C 1.5 12.35980987548828 4.640190124511719 15.5 8.5 15.5 C 12.35980987548828 15.5 15.5 12.35980987548828 15.5 8.5 C 15.5 4.640190124511719 12.35980987548828 1.5 8.5 1.5 M 8.5 0 C 13.19441986083984 0 17 3.805580139160156 17 8.5 C 17 13.19441986083984 13.19441986083984 17 8.5 17 C 3.805580139160156 17 0 13.19441986083984 0 8.5 C 0 3.805580139160156 3.805580139160156 0 8.5 0 Z" stroke="none" fill="#78AC84"/></g><path d="M8.55-2.558a.378.378,0,0,1,.285.128l.795.863A4.366,4.366,0,0,1,8.006-.315,5.6,5.6,0,0,1,5.693.12,5.467,5.467,0,0,1,3.521-.293,4.786,4.786,0,0,1,1.875-1.44,5.024,5.024,0,0,1,.829-3.2,6.588,6.588,0,0,1,.465-5.423a6,6,0,0,1,.4-2.239A5.13,5.13,0,0,1,2.01-9.413a5.16,5.16,0,0,1,1.759-1.144,6.047,6.047,0,0,1,2.261-.409,5.339,5.339,0,0,1,2.111.386A4.934,4.934,0,0,1,9.69-9.555l-.675.938a.612.612,0,0,1-.154.158.436.436,0,0,1-.259.067.59.59,0,0,1-.353-.135,4.364,4.364,0,0,0-.457-.292,3.729,3.729,0,0,0-.7-.293,3.609,3.609,0,0,0-1.076-.135,3.632,3.632,0,0,0-1.406.266,3.126,3.126,0,0,0-1.1.761,3.5,3.5,0,0,0-.72,1.2,4.623,4.623,0,0,0-.259,1.594A4.751,4.751,0,0,0,2.786-3.8a3.578,3.578,0,0,0,.7,1.2,2.994,2.994,0,0,0,1.043.746,3.222,3.222,0,0,0,1.29.259,5.619,5.619,0,0,0,.746-.045,3.168,3.168,0,0,0,.615-.143,2.73,2.73,0,0,0,.533-.251,3.327,3.327,0,0,0,.5-.379.711.711,0,0,1,.158-.109A.4.4,0,0,1,8.55-2.558Z" transform="translate(94 1188)" fill="#3b6d75"/></g></svg>