<svg width="96" height="96" xmlns="http://www.w3.org/2000/svg" xmlns:xlink="http://www.w3.org/1999/xlink" overflow="hidden"><defs><clipPath id="clip0"><rect x="727" y="312" width="96" height="96"/></clipPath></defs><g clip-path="url(#clip0)" transform="translate(-727 -312)"><path d="M750 394 750 326 775 326 775 347 800 347 800 394 750 394ZM781 328.5 793.5 341 781 341 781 328.5ZM781 320 744 320 744 400 806 400 806 342 781 320Z" fill="#087021"/><path d="M756 357 794 357 794 361 756 361Z" fill="#087021"/><path d="M756 349 769 349 769 353 756 353Z" fill="#087021"/><path d="M756 365 794 365 794 369 756 369Z" fill="#087021"/><path d="M756 373 794 373 794 377 756 377Z" fill="#087021"/><path d="M756 381 794 381 794 385 756 385Z" fill="#087021"/></g></svg>