<?xml version="1.0" ?><svg style="enable-background:new 0 0 512 512;" version="1.1" viewBox="0 0 512 512" xml:space="preserve" xmlns="http://www.w3.org/2000/svg" xmlns:xlink="http://www.w3.org/1999/xlink"><style type="text/css">
	.st0{fill:#087021;}
</style><g id="Layer_1"/><g id="Layer_2"><g><path class="st0" d="M369.08,317.49c8.84,0,16-7.16,16-16V159.77c0-8.84-7.16-16-16-16h-43.03l-6.19-22.92    c-1.88-6.98-8.22-11.83-15.45-11.83h-96.83c-7.23,0-13.56,4.85-15.45,11.83l-6.19,22.92h-43.03c-8.84,0-16,7.16-16,16v141.72    c0,8.84,7.16,16,16,16H369.08z M158.92,175.77h39.28c7.23,0,13.56-4.85,15.45-11.83l6.19-22.92h72.32l6.19,22.92    c1.88,6.98,8.22,11.83,15.45,11.83h39.28v109.72H158.92V175.77z"/><path class="st0" d="M256,172.53c-27.27,0-49.46,22.19-49.46,49.46c0,27.27,22.19,49.46,49.46,49.46s49.46-22.19,49.46-49.46    C305.46,194.72,283.27,172.53,256,172.53z M256,239.45c-9.63,0-17.46-7.83-17.46-17.46s7.83-17.46,17.46-17.46    s17.46,7.83,17.46,17.46S265.63,239.45,256,239.45z"/><path class="st0" d="M460.69,287.48c3.23-2.93,5.27-7.14,5.27-11.85c0-8.84-7.16-16-16-16h-29.39c-8.84,0-16,7.16-16,16v29.39    c0,8.84,7.16,16,16,16c7.19,0,13.27-4.74,15.29-11.27c13.26,7.22,16.64,13.1,16.64,15.18c0,3.55-9.32,16.42-50.72,28.51    c-38.72,11.31-90.49,17.53-145.78,17.53s-107.06-6.23-145.78-17.53c-41.41-12.09-50.72-24.96-50.72-28.51    c0-2.56,5.34-11.37,29.73-21.3c8.18-3.33,12.12-12.67,8.79-20.85c-3.33-8.18-12.67-12.12-20.85-8.79    c-32.96,13.42-49.67,30.55-49.67,50.94c0,9.59,4.1,23.85,23.61,37.32c12.11,8.36,28.98,15.73,50.15,21.91    c41.55,12.13,96.51,18.81,154.74,18.81s113.19-6.68,154.74-18.81c21.16-6.18,38.03-13.55,50.15-21.91    c19.51-13.47,23.61-27.73,23.61-37.32C484.5,310.84,476.51,298.3,460.69,287.48z"/></g></g></svg>